<svg width="26" height="22" viewBox="0 0 26 22" fill="none" xmlns="http://www.w3.org/2000/svg">
<g clip-path="url(#clip0_221_159)">
<path d="M12.1428 22L4.17435 20.6447C4.2464 20.2308 4.28288 19.8086 4.28288 19.3896C4.28288 17.3234 3.39148 15.345 1.83706 13.9617L0.499878 12.7716L0.499878 9.21424L1.83778 8.02355C3.3913 6.64164 4.28216 4.66349 4.28216 2.59621C4.2827 2.18446 4.24569 1.75957 4.17202 1.32776L12.1454 0C12.2941 0.872685 12.3689 1.74786 12.3678 2.60136C12.3678 5.60507 11.4669 8.52159 9.82568 10.993C11.4674 13.4651 12.3687 16.3829 12.3687 19.3894C12.3687 20.2614 12.2927 21.1397 12.1428 22Z" fill="#FFA04B"/>
<path d="M25.2738 22L17.3053 20.6447C17.3774 20.2308 17.4139 19.8086 17.4139 19.3896C17.4139 17.3233 16.5225 15.345 14.968 13.9617L13.6309 12.7715V9.21421L14.9688 8.02352C16.5223 6.64161 17.4131 4.66346 17.4131 2.59619C17.4137 2.18515 17.3767 1.7599 17.3028 1.32667L25.2765 0.0010376C25.4251 0.874433 25.4999 1.74925 25.4988 2.60151C25.4988 5.60522 24.5979 8.52174 22.9567 10.9931C24.5984 13.4652 25.4997 16.383 25.4997 19.3896C25.4997 20.2615 25.4237 21.1397 25.2738 22Z" fill="#FFA04B"/>
</g>
<defs>
<clipPath id="clip0_221_159">
<rect width="25" height="22" fill="white" transform="translate(0.499756)"/>
</clipPath>
</defs>
</svg>
