<svg width="25" height="23" viewBox="0 0 25 23" fill="none" xmlns="http://www.w3.org/2000/svg">
<g clip-path="url(#clip0_223_286)">
<path d="M20.7176 19.7088C20.7172 19.9901 20.7332 20.276 20.765 20.5647L13.7715 21.7293C13.6778 21.0481 13.6311 20.3691 13.632 19.7049L13.632 19.7043C13.632 16.8007 14.5029 13.9801 16.0906 11.5893L16.2743 11.3127L16.0906 11.0361C14.5024 8.64455 13.6311 5.82273 13.6311 2.91626C13.6311 2.23869 13.6785 1.55692 13.7724 0.883508L20.7627 2.07241C20.7322 2.35291 20.7169 2.63511 20.7169 2.91608C20.7169 5.12615 21.6701 7.23999 23.3303 8.71744C23.3303 8.71745 23.3303 8.71745 23.3303 8.71746L24.4999 9.75844L24.4999 12.8671L23.3297 13.9085C23.3296 13.9086 23.3296 13.9086 23.3296 13.9086C21.6703 15.3846 20.7178 17.4981 20.7176 19.7088ZM20.7176 19.7088L21.2176 19.7094M20.7176 19.7088C20.7176 19.709 20.7176 19.7092 20.7176 19.7094L21.2176 19.7094M21.2176 19.7094C21.2171 20.1008 21.2505 20.504 21.317 20.9137L21.2176 19.7094Z" stroke="#FFA04B"/>
<path d="M7.58661 19.7091C7.58626 19.9903 7.60226 20.2764 7.63415 20.5657L0.64047 21.7284C0.546874 21.0467 0.500132 20.3681 0.500971 19.7048L0.500971 19.7041C0.500971 16.8006 1.37191 13.98 2.95962 11.5891L3.14331 11.3125L2.95961 11.0359C1.37139 8.64439 0.500076 5.82258 0.500076 2.91611C0.500076 2.23854 0.547548 1.5569 0.641405 0.883534L7.63168 2.07244C7.60123 2.35293 7.5859 2.63513 7.5859 2.91611C7.5859 5.12617 8.53913 7.24002 10.1993 8.71747C10.1993 8.71747 10.1993 8.71748 10.1993 8.71749L11.3689 9.75847L11.3689 12.8671L10.1987 13.9086C10.1986 13.9086 10.1986 13.9086 10.1986 13.9086C8.53923 15.3847 7.58671 17.4983 7.58661 19.7091ZM7.58661 19.7091C7.58661 19.709 7.58661 19.7089 7.58661 19.7088L8.08661 19.7095L7.58661 19.7095C7.58661 19.7094 7.58661 19.7093 7.58661 19.7091Z" stroke="#FFA04B"/>
</g>
<defs>
<clipPath id="clip0_223_286">
<rect width="25" height="22" fill="white" transform="translate(25 22.3057) rotate(-180)"/>
</clipPath>
</defs>
</svg>
