<?xml version="1.0" encoding="UTF-8" standalone="no"?>
<svg
   width="211"
   height="196"
   viewBox="0 0 211 196"
   fill="none"
   version="1.1"
   id="svg100"
   sodipodi:docname="green-hat.svg"
   inkscape:version="1.1.2 (0a00cf5339, 2022-02-04)"
   xmlns:inkscape="http://www.inkscape.org/namespaces/inkscape"
   xmlns:sodipodi="http://sodipodi.sourceforge.net/DTD/sodipodi-0.dtd"
   xmlns="http://www.w3.org/2000/svg"
   xmlns:svg="http://www.w3.org/2000/svg">
  <defs
     id="defs104" />
  <sodipodi:namedview
     id="namedview102"
     pagecolor="#ffffff"
     bordercolor="#666666"
     borderopacity="1.0"
     inkscape:pageshadow="2"
     inkscape:pageopacity="0.0"
     inkscape:pagecheckerboard="0"
     showgrid="false"
     inkscape:zoom="1.5876904"
     inkscape:cx="166.59419"
     inkscape:cy="167.53896"
     inkscape:window-width="1916"
     inkscape:window-height="1053"
     inkscape:window-x="0"
     inkscape:window-y="0"
     inkscape:window-maximized="1"
     inkscape:current-layer="svg100" />
  <path
     d="m 1.0272,120.789 c 3.5526,16.021 42.3717,40.256 82.1508,58.302"
     stroke="#49b170"
     stroke-width="3"
     id="path81" />
  <path
     d="M 77.168,40.664 C 21.9557,-7.7889 13.1769,-2.72 2.1321,5.323 c -12.4213,9.23 27.9003,27.504 30.5669,44.916 0,0 0.6314,2.807 -4.1738,29.164 -4.5822,25.131 8.592,33.215 14.4399,38.311 20.2639,17.658 110.0649,76.553 123.7199,77.633 20.349,-15.229 64.21,-59.831 33.363,-117.575 C 168.396,18.523 114.181,28.58 77.168,40.664 Z"
     fill="#49b170"
     id="path83" />
  <mask
     id="mask0_384_367"
     maskUnits="userSpaceOnUse"
     x="51"
     y="102"
     width="212"
     height="196">
    <path
       d="M 129.168,142.664 C 73.9557,94.2111 65.1769,99.28 54.1321,107.323 c -12.4213,9.23 27.9003,27.504 30.5669,44.916 0,0 0.6314,2.807 -4.1738,29.164 -4.5822,25.131 8.592,33.215 14.4399,38.311 20.2639,17.658 110.0649,76.553 123.7199,77.633 20.349,-15.229 64.21,-59.831 33.363,-117.575 -31.652,-59.249 -85.867,-49.192 -122.88,-37.108 z"
       fill="#ffffff"
       id="path85" />
  </mask>
  <g
     mask="url(#mask0_384_367)"
     id="g96"
     transform="translate(-52,-102)">
    <path
       fill-rule="evenodd"
       clip-rule="evenodd"
       d="m 243.611,167.05 c 19.546,36.706 5.641,82.335 -31.089,101.957 l -21.314,11.386 1.362,2.549 21.314,-11.386 c 38.17,-20.391 52.6,-67.83 32.231,-105.959 l -0.048,-0.09 -57.81,-78.9121 -2.335,1.7093 z"
       fill="#000000"
       id="path88" />
    <path
       fill-rule="evenodd"
       clip-rule="evenodd"
       d="M 159.624,28.6187 133.445,114.68 c -24.42,80.28 20.884,165.086 101.19,189.42 l 74.493,22.573 0.841,-2.766 -74.492,-22.573 C 156.699,277.462 112.257,194.27 136.213,115.519 l 26.179,-86.0616 z"
       fill="#000000"
       id="path90" />
    <path
       fill-rule="evenodd"
       clip-rule="evenodd"
       d="m 322.041,192.943 -82.718,-34.266 c -37.535,-15.549 -77.764,-14.868 -112.87,-1.188 l 1.049,2.693 c 34.438,-13.419 73.893,-14.086 110.711,1.166 l 82.719,34.266 z"
       fill="#000000"
       id="path92" />
    <path
       fill-rule="evenodd"
       clip-rule="evenodd"
       d="m 52.7842,105.293 c -0.0014,0 -0.0026,0 0.2416,1.425 0.2442,1.424 0.2426,1.425 0.2426,1.425 l 9e-4,-0.001 0.0148,-0.002 c 0.0148,-0.002 0.0398,-0.006 0.0745,-0.011 0.0694,-0.01 0.1775,-0.025 0.3215,-0.043 0.2879,-0.034 0.7184,-0.077 1.2675,-0.109 1.0994,-0.063 2.667,-0.08 4.5139,0.11 3.7004,0.38 8.4628,1.582 12.8427,4.84 8.6483,6.433 16.4481,21.422 10.2948,56.334 -4.3559,24.712 -3.5404,35.663 0.0029,42.227 1.7823,3.302 4.2053,5.392 6.6429,7.457 0.0722,0.062 0.1444,0.123 0.2167,0.184 2.3813,2.017 4.8257,4.087 7.142,7.384 l 2.3681,-1.662 c -2.5327,-3.606 -5.222,-5.883 -7.5935,-7.89 -0.0876,-0.074 -0.1747,-0.148 -0.2614,-0.222 -2.446,-2.072 -4.4728,-3.855 -5.9687,-6.626 -3.0129,-5.581 -4.0667,-15.58 0.2999,-40.353 6.2302,-35.348 -1.4688,-51.755 -11.4152,-59.153 -4.9175,-3.658 -10.2264,-4.981 -14.2729,-5.396 -2.0267,-0.208 -3.7514,-0.191 -4.9761,-0.12 -0.6129,0.035 -1.1024,0.084 -1.4438,0.125 -0.1708,0.02 -0.3047,0.038 -0.3988,0.052 -0.047,0.007 -0.084,0.013 -0.1107,0.017 l -0.0323,0.005 -0.0103,0.002 z"
       fill="#000000"
       id="path94" />
  </g>
  <path
     d="m 9.2389,44.94 c 8.6579,7.661 2.3887,30.284 1.9909,52.704 -0.4558,25.693 19.0726,36.652 50.9002,55.991"
     stroke="#49b170"
     stroke-width="3"
     id="path98" />
</svg>
