<?xml version="1.0" encoding="UTF-8" standalone="no"?>
<svg
   width="249"
   height="203"
   viewBox="0 0 249 203"
   fill="none"
   version="1.1"
   id="svg737"
   sodipodi:docname="green-whistle.svg"
   inkscape:version="1.1.2 (0a00cf5339, 2022-02-04)"
   xmlns:inkscape="http://www.inkscape.org/namespaces/inkscape"
   xmlns:sodipodi="http://sodipodi.sourceforge.net/DTD/sodipodi-0.dtd"
   xmlns="http://www.w3.org/2000/svg"
   xmlns:svg="http://www.w3.org/2000/svg">
  <sodipodi:namedview
     id="namedview739"
     pagecolor="#ffffff"
     bordercolor="#666666"
     borderopacity="1.0"
     inkscape:pageshadow="2"
     inkscape:pageopacity="0.0"
     inkscape:pagecheckerboard="0"
     showgrid="false"
     inkscape:zoom="1.2414286"
     inkscape:cx="134.9252"
     inkscape:cy="168.35443"
     inkscape:window-width="1916"
     inkscape:window-height="1053"
     inkscape:window-x="0"
     inkscape:window-y="0"
     inkscape:window-maximized="1"
     inkscape:current-layer="svg737" />
  <g
     clip-path="url(#clip0_187_161)"
     id="g730"
     transform="translate(0,-64)">
    <path
       d="m 157.018,169.845 c -23.427,-17.446 -56.557,-12.605 -74.0034,10.821 -0.7821,1.051 -1.5033,2.126 -2.196,3.212 l -29.0417,-7.956 -9.0389,32.993 30.041,8.23 c 1.3447,14.403 8.5542,28.202 21.0709,37.523 23.4191,17.441 56.5491,12.6 73.9951,-10.827 l 30.173,22.47 51.423,-27.636 -92.422,-68.829 z m -107.1454,33.782 5.1996,-19.473 11.5717,3.089 -5.1996,19.473 z"
       fill="#49b170"
       id="path695" />
    <mask
       id="mask0_187_161"
       maskUnits="userSpaceOnUse"
       x="42"
       y="159"
       width="208"
       height="108">
      <path
         d="m 157.018,169.845 c -23.427,-17.446 -56.557,-12.605 -74.0034,10.821 -0.7821,1.051 -1.5033,2.126 -2.196,3.212 l -29.0417,-7.956 -9.0389,32.993 30.041,8.23 c 1.3447,14.403 8.5542,28.202 21.0709,37.523 23.4191,17.441 56.5491,12.6 73.9951,-10.827 l 30.173,22.47 51.423,-27.636 -92.422,-68.829 z m -107.1454,33.782 5.1996,-19.473 11.5717,3.089 -5.1996,19.473 z"
         fill="#ffffff"
         id="path697" />
    </mask>
    <g
       mask="url(#mask0_187_161)"
       id="g708">
      <path
         d="m 200.932,288.938 -15.196,-29.405 57.216,-29.569 45.744,14.573 z m -9.995,-27.748 11.667,22.576 75.933,-38.414 -35.233,-11.225 z"
         fill="#000000"
         id="path700" />
      <path
         d="m 231.664,240.575 -39.209,-29.199 -2.305,3.095 39.208,29.2 z"
         fill="#000000"
         id="path702" />
      <path
         d="m 98.0254,235.373 c -10.383,-7.733 -16.4844,-20.646 -14.874,-34.402 2.3997,-20.497 21.0276,-35.222 41.5256,-32.823 9.93,1.162 18.812,6.12 25.012,13.965 6.199,7.844 8.973,17.633 7.811,27.561 -1.161,9.93 -6.121,18.813 -13.964,25.012 -7.843,6.2 -17.631,8.974 -27.561,7.811 -6.742,-0.788 -12.86,-3.334 -17.9496,-7.124 z M 140.34,178.355 c -4.665,-3.474 -10.18,-5.679 -16.112,-6.374 -18.384,-2.152 -35.0913,11.055 -37.243,29.439 -1.0423,8.906 1.4456,17.685 7.0068,24.719 5.5591,7.033 13.5272,11.482 22.4322,12.525 8.905,1.042 17.684,-1.447 24.719,-7.007 7.034,-5.56 11.481,-13.527 12.524,-22.433 1.042,-8.905 -1.445,-17.684 -7.006,-24.718 -1.857,-2.349 -3.983,-4.409 -6.321,-6.151 z"
         fill="#000000"
         id="path704" />
      <path
         d="M 91.8098,258.026 C 66.6333,239.277 61.4037,203.54 80.1537,178.363 c 18.75,-25.178 54.4863,-30.407 79.6643,-11.657 25.177,18.75 30.406,54.487 11.656,79.664 -18.75,25.178 -54.487,30.406 -79.6642,11.656 z m 65.7022,-88.224 c -23.47,-17.478 -56.784,-12.604 -74.2626,10.866 -17.4786,23.47 -12.6042,56.784 10.8659,74.263 23.4697,17.478 56.7837,12.604 74.2627,-10.866 17.479,-23.47 12.604,-56.784 -10.866,-74.263 z"
         fill="#000000"
         id="path706" />
    </g>
    <path
       d="M 16.0972,205.053 -101.197,117.701 c -9.266,-6.9 -11.189,-20.0509 -4.29,-29.3156 L -85.4589,61.4923 C -69.6684,40.2891 -39.572,35.8855 -18.368,51.6765 l 31.7913,23.6756 c 12.4857,9.2983 21.7378,22.0034 26.7554,36.7419 l 20.5779,60.438 c 3.0702,9.017 1.5061,18.96 -4.1832,26.6 -9.5265,12.792 -27.6838,15.449 -40.476,5.922 z M -20.6734,54.7722 c -19.496,-14.519 -47.1708,-10.4704 -61.6904,9.0263 l -20.0282,26.8931 c -5.628,7.5582 -4.059,18.2864 3.4996,23.9144 l 117.2937,87.351 c 11.0849,8.255 26.8197,5.953 35.0749,-5.132 4.9296,-6.619 6.2843,-15.237 3.6254,-23.05 L 36.5237,113.337 C 31.7582,99.3415 22.973,87.2777 11.1165,78.448 L -20.6748,54.7724 Z"
       fill="#000000"
       id="path710" />
    <mask
       id="mask1_187_161"
       maskUnits="userSpaceOnUse"
       x="50"
       y="168"
       width="21"
       height="22">
      <path
         d="m 69.5081,171.532 c -5.6284,-5.33 -15.3217,-4.366 -18.1969,3.088 -2.2387,5.804 1.3364,11.758 6.8633,13.977 4.3737,1.756 7.2048,-2.097 10.2802,-5.629 3.2974,-3.787 2.0402,-8.575 1.0534,-11.436 0.987,2.862 -5.6284,-5.33 0,0 z"
         fill="#ffffff"
         id="path712" />
    </mask>
    <g
       mask="url(#mask1_187_161)"
       id="g728">
      <path
         d="M 16.0971,205.053 -101.197,117.701 c -9.266,-6.9 -11.189,-20.051 -4.29,-29.3157 L -85.459,61.4922 C -69.6686,40.289 -39.5721,35.8854 -18.3681,51.6764 L 13.4231,75.352 c 12.4858,9.2984 21.7379,22.0034 26.7554,36.742 l 20.5779,60.438 c 3.0702,9.017 1.5061,18.96 -4.1831,26.6 -9.5266,12.792 -27.6838,15.449 -40.476,5.922 z M -20.6736,54.7721 c -19.4959,-14.519 -47.1707,-10.4704 -61.6903,9.0263 l -20.0281,26.8931 c -5.628,7.5582 -4.059,18.2865 3.4994,23.9145 l 117.2938,87.351 c 11.0849,8.255 26.8197,5.953 35.0749,-5.132 4.9296,-6.619 6.2843,-15.237 3.6254,-23.05 L 36.5236,113.337 C 31.7581,99.3414 22.9729,87.2777 11.1164,78.4479 L -20.6749,54.7723 Z"
         fill="#000000"
         id="path715" />
      <path
         d="m 157.018,169.845 c -23.427,-17.446 -56.557,-12.605 -74.0035,10.821 -0.7821,1.051 -1.5034,2.126 -2.196,3.212 l -29.0417,-7.956 -9.039,32.993 30.041,8.23 c 1.3448,14.403 8.5543,28.202 21.071,37.523 23.4192,17.441 56.5492,12.6 73.9952,-10.827 l 30.172,22.47 51.424,-27.637 -92.423,-68.828 z m -107.1456,33.782 5.1997,-19.474 11.5717,3.09 -5.1997,19.473 z"
         fill="#49b170"
         id="path717" />
      <mask
         id="mask2_187_161"
         maskUnits="userSpaceOnUse"
         x="42"
         y="159"
         width="208"
         height="108">
        <path
           d="m 157.018,169.845 c -23.427,-17.446 -56.557,-12.605 -74.0035,10.821 -0.7821,1.051 -1.5034,2.126 -2.196,3.212 l -29.0417,-7.956 -9.039,32.993 30.041,8.23 c 1.3448,14.403 8.5543,28.202 21.071,37.523 23.4192,17.441 56.5492,12.6 73.9952,-10.827 l 30.172,22.47 51.424,-27.637 -92.423,-68.828 z m -107.1456,33.782 5.1997,-19.474 11.5717,3.09 -5.1997,19.473 z"
           fill="#ffffff"
           id="path719" />
      </mask>
      <g
         mask="url(#mask2_187_161)"
         id="g726">
        <path
           d="m 98.0253,235.373 c -10.383,-7.733 -16.4844,-20.646 -14.874,-34.402 2.3997,-20.497 21.0277,-35.222 41.5247,-32.823 9.931,1.162 18.813,6.12 25.013,13.965 6.199,7.844 8.973,17.633 7.811,27.561 -1.161,9.93 -6.121,18.813 -13.964,25.012 -7.843,6.2 -17.631,8.974 -27.561,7.811 -6.742,-0.788 -12.86,-3.334 -17.9497,-7.124 z M 140.34,178.355 c -4.665,-3.474 -10.18,-5.679 -16.112,-6.374 -18.384,-2.152 -35.0914,11.055 -37.2431,29.439 -1.0423,8.906 1.4456,17.685 7.0068,24.719 5.5591,7.033 13.5273,11.481 22.4323,12.525 8.905,1.042 17.684,-1.447 24.719,-7.007 7.034,-5.56 11.481,-13.527 12.523,-22.433 1.043,-8.906 -1.444,-17.684 -7.006,-24.718 -1.856,-2.349 -3.982,-4.409 -6.32,-6.151 z"
           fill="#000000"
           id="path722" />
        <path
           d="M 91.8097,258.026 C 66.6332,239.277 61.4036,203.54 80.1536,178.362 c 18.75,-25.177 54.4864,-30.406 79.6634,-11.656 25.178,18.75 30.407,54.487 11.657,79.664 -18.75,25.178 -54.487,30.406 -79.6643,11.656 z m 65.7023,-88.224 c -23.47,-17.479 -56.784,-12.604 -74.2627,10.866 -17.4786,23.47 -12.6042,56.784 10.8658,74.263 23.4699,17.478 56.7839,12.604 74.2629,-10.866 17.478,-23.47 12.604,-56.784 -10.866,-74.263 z"
           fill="#000000"
           id="path724" />
      </g>
    </g>
  </g>
  <defs
     id="defs735">
    <clipPath
       id="clip0_187_161">
      <rect
         width="409.41299"
         height="131.153"
         fill="#ffffff"
         transform="rotate(36.6758,-19.8322,-59.834238)"
         id="rect732"
         x="0"
         y="0" />
    </clipPath>
  </defs>
</svg>
