<?xml version="1.0" encoding="UTF-8" standalone="no"?>
<svg
   width="360"
   height="280"
   viewBox="0 0 360 280"
   fill="none"
   version="1.1"
   id="svg100"
   sodipodi:docname="yellow-arc.svg"
   inkscape:version="1.1.2 (0a00cf5339, 2022-02-04)"
   xmlns:inkscape="http://www.inkscape.org/namespaces/inkscape"
   xmlns:sodipodi="http://sodipodi.sourceforge.net/DTD/sodipodi-0.dtd"
   xmlns="http://www.w3.org/2000/svg"
   xmlns:svg="http://www.w3.org/2000/svg">
  <defs
     id="defs104" />
  <sodipodi:namedview
     id="namedview102"
     pagecolor="#ffffff"
     bordercolor="#666666"
     borderopacity="1.0"
     inkscape:pageshadow="2"
     inkscape:pageopacity="0.0"
     inkscape:pagecheckerboard="0"
     showgrid="false"
     inkscape:zoom="1.2993827"
     inkscape:cx="64.261283"
     inkscape:cy="124.67458"
     inkscape:window-width="1916"
     inkscape:window-height="1053"
     inkscape:window-x="0"
     inkscape:window-y="0"
     inkscape:window-maximized="1"
     inkscape:current-layer="svg100" />
  <path
     d="m -2.4570677,16.668405 -3.07098,1.1746 96.9631697,253.517195 3.071,-1.175 z"
     fill="#000000"
     id="path86" />
  <path
     d="m 108.89342,279.6912 -26.141398,-2.921 0.1202,-1.076 c 3.3167,-29.724 12.3813,-59.869 26.943198,-89.596 l 7.494,-15.3 c 9.755,-19.915 11.469,-39.442 4.957,-56.47 -6.513,-17.027995 -20.821,-30.427995 -41.375898,-38.749995 l -15.6717,-6.345 c -30.7676,-12.4577 -57.6958697,-28.9129 -80.0364,-48.9093 l -0.7922,-0.709 17.5424003,-19.59880003 0.7922,0.7091 C 22.797422,18.691905 47.144622,33.539005 75.090922,44.853405 l 15.6717,6.3452 c 27.102798,10.9726 47.016798,30.0566 56.072798,53.734595 9.056,23.678 6.96,51.179 -5.903,77.438 l -7.494,15.299 c -13.227,27.002 -21.444,54.235 -24.424,80.944 z"
     fill="#ebbe14"
     id="path88" />
  <path
     d="m 161.08942,108.5562 70.5,-28.499995"
     stroke="#ebbe14"
     stroke-width="3"
     id="path90" />
  <path
     d="m 212.08942,43.556605 46,-18"
     stroke="#ebbe14"
     stroke-width="3"
     id="path92" />
  <path
     d="m 376.55842,0.89260497 -150.934,57.72810003 1.174,3.071 150.934,-57.7281 z"
     fill="#000000"
     id="path94" />
  <path
     d="m 213.67742,71.610205 -1.936,-2.658 9.046,-6.5896 -10.916,1.4759 -0.441,-3.2583 23.806,-3.2183 z"
     fill="#000000"
     id="path96" />
  <path
     d="m 225.68142,58.770505 -16.008,6.1227 1.174,3.071 16.008,-6.1227 z"
     fill="#000000"
     id="path98" />
</svg>
