<?xml version="1.0" encoding="UTF-8" standalone="no"?>
<svg
   width="199"
   height="260"
   viewBox="0 0 199 260"
   fill="none"
   version="1.1"
   id="svg90"
   sodipodi:docname="yellow-target.svg"
   inkscape:version="1.1.2 (0a00cf5339, 2022-02-04)"
   xmlns:inkscape="http://www.inkscape.org/namespaces/inkscape"
   xmlns:sodipodi="http://sodipodi.sourceforge.net/DTD/sodipodi-0.dtd"
   xmlns="http://www.w3.org/2000/svg"
   xmlns:svg="http://www.w3.org/2000/svg">
  <sodipodi:namedview
     id="namedview92"
     pagecolor="#ffffff"
     bordercolor="#666666"
     borderopacity="1.0"
     inkscape:pageshadow="2"
     inkscape:pageopacity="0.0"
     inkscape:pagecheckerboard="0"
     showgrid="false"
     inkscape:zoom="1.3986711"
     inkscape:cx="74.713777"
     inkscape:cy="150.85748"
     inkscape:window-width="1916"
     inkscape:window-height="1053"
     inkscape:window-x="0"
     inkscape:window-y="0"
     inkscape:window-maximized="1"
     inkscape:current-layer="svg90" />
  <g
     clip-path="url(#clip0_375_204)"
     id="g83"
     transform="translate(0,-24)">
    <path
       d="m -67.9427,127.816 c -14.5527,70.473 30.78,139.4 101.2533,153.953 C 103.784,296.322 172.711,250.989 187.264,180.516 201.817,110.042 156.484,41.1152 86.0106,26.5625 15.5373,12.0098 -53.39,57.3424 -67.9427,127.816 Z"
       fill="#ebbe14"
       id="path67" />
    <path
       d="M -37.8029,134.04 C -26.7053,80.2982 26.0453,45.6046 79.7867,56.7022 133.528,67.7998 168.222,120.55 157.124,174.292 146.026,228.033 93.2758,262.727 39.5344,251.629 -14.207,240.532 -48.9006,187.782 -37.8029,134.04 Z M 154.062,173.659 C 164.81,121.607 131.208,70.5135 79.1544,59.7646 27.1011,49.0156 -23.9916,82.6187 -34.7405,134.672 -45.4895,186.725 -11.8865,237.818 40.1668,248.567 92.22,259.316 143.313,225.713 154.062,173.659 Z"
       fill="#000000"
       id="path69" />
    <path
       d="M -4.66049,140.883 C 2.66338,105.417 37.4761,82.5208 72.9428,89.8446 108.41,97.1685 131.306,131.981 123.982,167.448 116.658,202.915 81.8449,225.811 46.3781,218.488 10.9114,211.164 -11.9845,176.351 -4.66049,140.883 Z M 120.919,166.816 C 127.894,133.038 106.088,99.8821 72.3105,92.907 38.5326,85.9319 5.37698,107.738 -1.59813,141.516 -8.57324,175.294 13.2327,208.45 47.0105,215.425 80.7884,222.4 113.944,200.594 120.919,166.816 Z"
       fill="#000000"
       id="path71" />
    <path
       d="m 29.5231,147.942 c 3.4314,-16.617 19.7428,-27.345 36.3607,-23.913 16.6179,3.432 27.3457,19.743 23.9142,36.36 -3.4314,16.617 -19.7429,27.346 -36.3608,23.914 C 36.8193,180.872 26.0915,164.56 29.5231,147.942 Z m 57.2118,11.815 c 3.0828,-14.929 -6.5552,-29.583 -21.4843,-32.666 -14.929,-3.083 -29.5831,6.555 -32.6659,21.484 -3.0828,14.929 6.5551,29.583 21.4841,32.666 14.929,3.082 29.5833,-6.555 32.6661,-21.484 z"
       fill="#000000"
       id="path73" />
    <path
       d="m 57.2024,143.317 3.1,0.408 -1.3009,9.89 9.9256,9.887 -2.2072,2.215 -11.0198,-10.977 z"
       fill="#000000"
       id="path75" />
    <path
       d="m 179.878,76.1715 -1.718,-2.6125 -120.6705,79.363 1.7183,2.613 z"
       fill="#000000"
       id="path77" />
    <path
       d="m 172.891,79.0054 18.079,-20.4149 2.341,2.0726 -9.878,11.1551 13.795,-5.0476 1.074,2.936 z"
       fill="#000000"
       id="path79" />
    <path
       d="m 196.834,64.79 -1.718,-2.6126 -17.062,11.222 1.718,2.6126 z"
       fill="#000000"
       id="path81" />
  </g>
  <defs
     id="defs88">
    <clipPath
       id="clip0_375_204">
      <rect
         width="260.59201"
         height="260.59201"
         fill="#ffffff"
         transform="rotate(101.668,85.255939,113.46043)"
         id="rect85"
         x="0"
         y="0" />
    </clipPath>
  </defs>
</svg>
