<svg width="360" height="324" viewBox="0 0 360 324" fill="none" xmlns="http://www.w3.org/2000/svg">
<path d="M-3.21249 52.1182L-6.28347 53.2928L90.6797 306.81L93.7507 305.635L-3.21249 52.1182Z" fill="black"/>
<path d="M108.138 315.141L81.9966 312.22L82.1168 311.144C85.4335 281.42 94.4981 251.275 109.06 221.548L116.554 206.248C126.309 186.333 128.023 166.806 121.511 149.778C114.998 132.75 100.69 119.35 80.1351 111.028L64.4634 104.683C33.6958 92.2253 6.76753 75.7701 -15.573 55.7737L-16.3652 55.0647L1.1772 35.4659L1.9694 36.175C22.042 54.1417 46.3892 68.9888 74.3355 80.3032L90.0072 86.6484C117.11 97.621 137.024 116.705 146.08 140.383C155.136 164.061 153.04 191.562 140.177 217.821L132.683 233.12C119.456 260.122 111.239 287.355 108.259 314.064L108.138 315.141Z" fill="#EBBE14"/>
<path d="M160.334 144.006L230.834 115.506" stroke="#EBBE14" stroke-width="3"/>
<path d="M211.334 79.0064L257.334 61.0064" stroke="#EBBE14" stroke-width="3"/>
<path d="M375.803 36.3424L224.869 94.0705L226.043 97.1415L376.977 39.4134L375.803 36.3424Z" fill="black"/>
<path d="M212.922 107.06L210.986 104.402L220.032 97.8124L209.116 99.2883L208.675 96.03L232.481 92.8117L212.922 107.06Z" fill="black"/>
<path d="M224.926 94.2203L208.918 100.343L210.092 103.414L226.1 97.2913L224.926 94.2203Z" fill="black"/>
</svg>
