<?xml version="1.0" encoding="UTF-8" standalone="no"?>
<svg
   width="289"
   height="259"
   viewBox="0 0 289 259"
   fill="none"
   version="1.1"
   id="svg118"
   sodipodi:docname="pink-rugby.svg"
   inkscape:version="1.1.2 (0a00cf5339, 2022-02-04)"
   xmlns:inkscape="http://www.inkscape.org/namespaces/inkscape"
   xmlns:sodipodi="http://sodipodi.sourceforge.net/DTD/sodipodi-0.dtd"
   xmlns="http://www.w3.org/2000/svg"
   xmlns:svg="http://www.w3.org/2000/svg">
  <sodipodi:namedview
     id="namedview120"
     pagecolor="#ffffff"
     bordercolor="#666666"
     borderopacity="1.0"
     inkscape:pageshadow="2"
     inkscape:pageopacity="0.0"
     inkscape:pagecheckerboard="0"
     showgrid="false"
     inkscape:zoom="1.902185"
     inkscape:cx="94.365163"
     inkscape:cy="131.4278"
     inkscape:window-width="1916"
     inkscape:window-height="1053"
     inkscape:window-x="0"
     inkscape:window-y="0"
     inkscape:window-maximized="1"
     inkscape:current-layer="svg118" />
  <g
     clip-path="url(#clip0_223_285)"
     id="g103"
     transform="translate(0.45146221,-10.366753)">
    <path
       d="m 121.978,82.9647 c 83.886,-4.2377 149.772,52.9293 157.456,136.1863 1.074,11.638 -3.395,24.014 -12.099,33.43 l -0.367,0.396 c -7.962,8.613 -18.663,13.927 -29.359,14.442 C 153.702,271.461 87.9423,214.043 80.5138,130.669 79.4591,118.832 84.1649,106.26 93.1647,96.8374 101.072,88.5577 111.531,83.493 121.977,82.9654 Z"
       fill="#ed6ea7"
       id="path94" />
    <mask
       id="mask0_223_285"
       maskUnits="userSpaceOnUse"
       x="80"
       y="82"
       width="200"
       height="186">
      <path
         d="m 121.978,82.9647 c 83.886,-4.2377 149.772,52.9293 157.456,136.1863 1.074,11.638 -3.395,24.014 -12.099,33.43 l -0.367,0.396 c -7.962,8.613 -18.663,13.927 -29.359,14.442 C 153.702,271.461 87.9423,214.043 80.5138,130.669 79.4591,118.832 84.1649,106.26 93.1647,96.8374 101.072,88.5577 111.531,83.493 121.977,82.9654 Z"
         fill="#ffffff"
         id="path96" />
    </mask>
    <g
       mask="url(#mask0_223_285)"
       id="g101">
      <path
         d="M 146.21,212.965 C 114.838,185.408 91.8014,148.388 84.6131,108.521 c -0.9503,-5.269 0.2602,-10.1362 3.4076,-13.7023 3.152,-3.5713 7.8399,-5.3789 13.1993,-5.0897 l 1.774,0.096 c 80.333,4.3286 157.611,72.207 172.264,151.313 l 0.113,0.609 c 0.98,5.292 -0.216,10.184 -3.368,13.772 -3.152,3.589 -7.848,5.405 -13.222,5.116 l -1.775,-0.095 c -40.232,-2.168 -79.629,-20.199 -110.795,-47.574 z m -45.083,-121.504 -0.093,1.7321 c -4.279,-0.2301 -7.9765,1.1624 -10.4121,3.9208 -2.431,2.7544 -3.3521,6.5861 -2.5949,10.7901 14.061,77.983 89.948,144.899 169.164,149.169 l 1.775,0.095 c 4.29,0.231 7.994,-1.169 10.429,-3.941 2.435,-2.773 3.346,-6.626 2.563,-10.85 l -0.114,-0.609 C 257.467,164.144 181.636,97.5368 102.806,93.2879 l -1.773,-0.0954 0.093,-1.7321 z"
         fill="#000000"
         id="path99" />
    </g>
  </g>
  <path
     d="M 111.81946,57.988747 C 83.128262,33.086647 7.2311222,-13.469343 -66.825438,-0.47696308"
     stroke="#ec6ea6"
     stroke-width="3"
     id="path105" />
  <line
     x1="289.17447"
     y1="257.67123"
     x2="138.67647"
     y2="257.67123"
     stroke="#ec6ea6"
     stroke-width="3"
     id="line107" />
  <path
     d="m 56.715862,45.947947 c -31.9945,-16.29 -112.221,-41.6668001 -177.171402,-12.8534"
     stroke="#ec6ea6"
     stroke-width="3"
     id="path109" />
  <path
     d="M 74.853562,99.184246 C 40.341662,83.302247 -45.548638,59.835347 -113.01454,93.025247"
     stroke="#ec6ea6"
     stroke-width="3"
     id="path111" />
  <defs
     id="defs116">
    <clipPath
       id="clip0_223_285">
      <rect
         width="244.282"
         height="150.605"
         fill="#ffffff"
         transform="rotate(41.2954,18.543314,202.01431)"
         id="rect113"
         x="0"
         y="0" />
    </clipPath>
  </defs>
</svg>
