<svg width="25" height="22" viewBox="0 0 25 22" fill="none" xmlns="http://www.w3.org/2000/svg">
<g clip-path="url(#clip0_237_310)">
<path d="M20.7176 19.4031C20.7172 19.6845 20.7332 19.9703 20.765 20.2591L13.7715 21.4237C13.6779 20.7424 13.6311 20.0635 13.632 19.3993L13.632 19.3986C13.632 16.495 14.5029 13.6745 16.0906 11.2836L16.2743 11.007L16.0906 10.7304C14.5024 8.33888 13.6311 5.51707 13.6311 2.61059C13.6311 1.93302 13.6785 1.25125 13.7724 0.577844L20.7627 1.76675C20.7322 2.04724 20.7169 2.32944 20.7169 2.61042C20.7169 4.82048 21.6701 6.93433 23.3303 8.41178C23.3303 8.41178 23.3303 8.41179 23.3303 8.4118L24.4999 9.45278L24.4999 12.5614L23.3297 13.6029C23.3296 13.6029 23.3296 13.6029 23.3296 13.6029C21.6703 15.079 20.7178 17.1924 20.7176 19.4031ZM20.7176 19.4031L21.2176 19.4038M20.7176 19.4031C20.7176 19.4033 20.7176 19.4036 20.7176 19.4038L21.2176 19.4038M21.2176 19.4038C21.2171 19.7951 21.2505 20.1983 21.3171 20.608L21.2176 19.4038Z" stroke="#ED6EA7"/>
<path d="M7.58658 19.4035C7.58623 19.6846 7.60223 19.9707 7.63412 20.26L0.640439 21.4227C0.546844 20.7411 0.500101 20.0624 0.500941 19.3991L0.500941 19.3985C0.500941 16.4949 1.37187 13.6743 2.95959 11.2835L3.14328 11.0069L2.95958 10.7302C1.37136 8.33873 0.500045 5.51692 0.500046 2.61044C0.500046 1.93288 0.547518 1.25123 0.641375 0.57787L7.63165 1.76677C7.6012 2.04727 7.58587 2.32947 7.58587 2.61044C7.58587 4.82051 8.5391 6.93435 10.1993 8.4118C10.1993 8.41181 10.1993 8.41182 10.1993 8.41182L11.3689 9.45281L11.3689 12.5614L10.1986 13.6029C10.1986 13.6029 10.1986 13.6029 10.1986 13.603C8.5392 15.0791 7.58668 17.1927 7.58658 19.4035ZM7.58658 19.4035C7.58658 19.4034 7.58658 19.4033 7.58658 19.4032L8.08658 19.4038L7.58658 19.4038C7.58658 19.4037 7.58658 19.4036 7.58658 19.4035Z" stroke="#ED6EA7"/>
</g>
<defs>
<clipPath id="clip0_237_310">
<rect width="25" height="22" fill="white" transform="translate(25 22) rotate(-180)"/>
</clipPath>
</defs>
</svg>
