<?xml version="1.0" encoding="UTF-8"?>
<!-- Generator: Adobe Illustrator 15.1.0, SVG Export Plug-In . SVG Version: 6.00 Build 0)  -->
<!DOCTYPE svg PUBLIC "-//W3C//DTD SVG 1.1//EN" "http://www.w3.org/Graphics/SVG/1.1/DTD/svg11.dtd">
<svg version="1.1" id="Calque_1" xmlns="http://www.w3.org/2000/svg" xmlns:xlink="http://www.w3.org/1999/xlink" x="0px" y="0px" width="800px" height="250px" viewBox="0 0 800 250" enable-background="new 0 0 800 250" xml:space="preserve">
<polygon fill="#1D1D1B" points="229.979,46.326 229.744,46.326 229.744,121.527 217.796,121.527 217.796,27 231.666,27   283.413,102.187 283.648,102.187 283.648,27 295.598,27 295.598,121.527 281.736,121.527 "/>
<g>
	<defs>
		<polygon id="SVGID_1_" points="-39,-53 839,-46 832,348.967 -41,344   "/>
	</defs>
	<clipPath id="SVGID_2_">
		<use xlink:href="#SVGID_1_" overflow="visible"/>
	</clipPath>
	<path clip-path="url(#SVGID_2_)" fill="#1D1D1B" d="M354.547,94.115c0,11.517-10.707,19.455-23.447,19.455   c-8.233,0-13.76-4.492-13.76-10.986c0-7.272,4.636-10.061,13.424-11.377l12.742-1.846c6.319-0.93,9.357-1.863,11.041-4.109V94.115z    M319.256,73.859c0.346-10.723,8.574-13.766,18.275-13.766c9.133,0,17.016,1.858,17.016,11.381c0,6.233-3.932,7.547-10.252,8.34   l-12.854,1.592c-18.943,2.391-25.371,8.867-25.371,21.582c0,8.998,4.403,20.93,24.026,20.93c9.581,0,20.631-4.12,25.133-11.266   c0.798,7.812,4.511,9.654,10.152,9.654c2.705,0,6.082-0.252,8.787-0.779v-9.279c-1.109,0.263-2.705,0.535-3.933,0.535   c-3.495,0-5.075-1.844-5.075-5.949V69.5c0-16.155-15.111-19.733-27.177-19.733c-17.702,0-27.854,6.75-29.315,24.092H319.256z"/>
	<path clip-path="url(#SVGID_2_)" fill="#1D1D1B" d="M381.713,52.15h11.262v10.451h0.24c5.292-9.66,14.652-12.834,23.107-12.834   c14.205,0,24.812,7.151,24.812,24.483v47.277h-11.281V76.902c0-10.193-5.406-16.016-17.482-16.016   c-10.25,0-19.396,7.016-19.396,20.655v39.986h-11.262V52.15z"/>
	<path clip-path="url(#SVGID_2_)" fill="#1D1D1B" d="M458.572,30.848h11.271v21.303h16.914v10.33h-16.914v42.756   c0,5.57,3.383,7.547,9.129,7.547c2.598,0,5.189-0.403,7.785-0.932v11.133c-3.838,0.787-8.002,0.933-12.633,0.933   c-11.048,0-15.553-6.369-15.553-16.42V62.481h-12.182v-10.33h12.182V30.848z"/>
	<path clip-path="url(#SVGID_2_)" fill="#1D1D1B" d="M569.555,99.674c0,6.219,4.283,13.896,18.602,13.896   c14.547,0,18.043-5.947,18.043-10.853c0-4.898-2.14-7.809-11.166-9.258l-18.606-2.912c-8.442-1.32-16.004-7.68-16.004-18.402   c0-14.037,10.38-22.377,26.955-22.377c19.392,0,27.845,9.791,28.856,23.301h-11.266c-0.354-7.012-5.98-12.975-17.711-12.975   c-7.221,0-15.566,2.387-15.566,10.596c0,4.627,1.815,7.277,9.824,8.605l16.009,2.512c14.876,2.377,20.63,8.607,20.63,18.4   c0,16.149-11.613,23.711-29.652,23.711c-13.529,0-28.982-4.119-30.217-24.244H569.555z"/>
	<path clip-path="url(#SVGID_2_)" fill="#1D1D1B" d="M554.701,89.098c0-28.748-16.461-39.33-32.021-39.33   c-22.987,0-34.281,17.084-34.281,37.068c0,19.998,11.294,37.082,34.281,37.082c11.607,0,24.807-6.758,30.445-23.455H541.17   c-3.843,9.813-12.631,12.321-19.055,12.321c-6.869,0-14.109-3.602-18.279-10.467c-2.432-3.656-3.98-9.205-3.98-15.42   c0-5.106,1.045-9.744,2.758-13.268c3.607-8.166,11.219-12.742,19.502-12.742c10.598,0,18.949,7.016,20.644,19.6h-33.452   l-5.561,10.31h50.955V89.098z"/>
	<polygon clip-path="url(#SVGID_2_)" fill="#1D1D1B" points="298.629,132.037 315.182,132.037 315.182,226.477 303.246,226.477    303.246,148.18 303.02,148.18 271.713,226.477 261.108,226.477 229.912,149.76 229.686,149.76 229.686,226.477 217.746,226.477    217.746,132.037 234.539,132.037 266.409,210.344  "/>
	<path clip-path="url(#SVGID_2_)" fill="#1D1D1B" d="M407.053,135.883h11.266v21.287h16.889v10.322h-16.889v42.711   c0,5.564,3.374,7.545,9.107,7.545c2.604,0,5.202-0.404,7.781-0.934v11.123c-3.82,0.785-7.994,0.934-12.605,0.934   c-11.042,0-15.549-6.363-15.549-16.406v-44.973h-12.168V157.17h12.168V135.883z"/>
	<path clip-path="url(#SVGID_2_)" fill="#1D1D1B" d="M444.281,157.17h11.256v12.701h0.23c5.292-10.977,12.84-15.08,20.271-15.08   c2.816,0,4.275,0.137,6.421,0.787v14.293c-2.821-0.799-4.953-1.328-7.992-1.328c-11.155,0-18.931,7.666-18.931,22.75v35.184   h-11.256V157.17z"/>
	<path clip-path="url(#SVGID_2_)" fill="#1D1D1B" d="M537.969,191.818c0,12.564-5.977,25.93-22.303,25.93   c-16.344,0-22.31-13.365-22.31-25.93c0-12.568,5.966-25.924,22.31-25.924C531.992,165.895,537.969,179.25,537.969,191.818    M481.418,191.818c0,19.984,11.252,37.053,34.248,37.053c22.973,0,34.24-17.068,34.24-37.053c0-19.963-11.268-37.027-34.24-37.027   C492.67,154.791,481.418,171.855,481.418,191.818"/>
	<path clip-path="url(#SVGID_2_)" fill="#1D1D1B" d="M610.904,192.223c0,15.861-8.564,25.525-21.629,25.525   c-13.18,0-21.849-9.664-21.849-25.525c0-13.102,6.536-25.523,21.849-25.523C604.489,166.699,610.904,179.121,610.904,192.223    M556.838,253.195h11.271v-35.58h0.216c4.5,7.535,13.635,11.256,22.416,11.256c17.8,0,32.114-13.385,32.114-36.648   c0-23.283-14.314-36.645-32.114-36.645c-8.671,0-18.026,3.982-22.416,11.244h-0.216v-9.652h-11.271V253.195z"/>
	<path clip-path="url(#SVGID_2_)" fill="#1D1D1B" d="M684.334,191.818c0,12.564-5.959,25.93-22.301,25.93   c-16.326,0-22.301-13.365-22.301-25.93c0-12.568,5.975-25.924,22.301-25.924C678.375,165.895,684.334,179.25,684.334,191.818    M627.787,191.818c0,19.984,11.266,37.053,34.246,37.053s34.232-17.068,34.232-37.053c0-19.963-11.252-37.027-34.232-37.027   S627.787,171.855,627.787,191.818"/>
	<rect x="703.989" y="131.248" clip-path="url(#SVGID_2_)" fill="#1D1D1B" width="11.269" height="95.229"/>
	<path clip-path="url(#SVGID_2_)" fill="#1D1D1B" d="M788.912,194.084c0-28.723-16.443-39.293-31.98-39.293   c-22.982,0-34.242,17.064-34.242,37.027c0,19.984,11.26,37.053,34.242,37.053c11.592,0,24.787-6.756,30.411-23.433h-11.94   c-3.838,9.8-12.615,12.31-19.037,12.31c-6.863,0-14.106-3.604-18.268-10.463c-2.421-3.65-3.965-9.195-3.965-15.404   c0-5.102,1.037-9.734,2.742-13.256c3.598-8.158,11.224-12.73,19.49-12.73c10.582,0,18.922,7.01,20.621,19.585h-33.418   l-5.553,10.304h50.896V194.084z"/>
	<polygon clip-path="url(#SVGID_2_)" fill-rule="evenodd" clip-rule="evenodd" fill="#1D1D1B" points="334.721,139.92    334.912,145.406 379.713,145.406 379.713,135.387  "/>
	<path clip-path="url(#SVGID_2_)" fill="#1D1D1B" d="M392.128,194.084c0-28.723-16.456-39.293-31.989-39.293   c-22.999,0-34.252,17.064-34.252,37.027c0,19.984,11.253,37.053,34.252,37.053c11.595,0,24.773-6.756,30.408-23.433h-11.943   c-3.832,9.8-12.615,12.31-19.039,12.31c-6.868,0-14.1-3.604-18.266-10.463c-2.421-3.65-3.981-9.195-3.981-15.404   c0-5.102,1.057-9.734,2.76-13.256c3.597-8.158,11.209-12.73,19.487-12.73c10.582,0,18.928,7.01,20.623,19.585h-33.42l-5.559,10.304   h50.919V194.084z"/>
	<path clip-path="url(#SVGID_2_)" fill="#007BC1" d="M113.027,118.006l-24.025,6.295l22.839-16.842L93.363,87.111l23.521,10.84   l1.122-23.422l7.574,21.26c21.695-33.695,56.082-67.074,110.273-92.785C98.084,68.352,32.574,114.149,7.234,83.154   c-1.928-2.361,46.822,70.09,84.145,161.237C91.379,244.391,80.752,183.705,113.027,118.006"/>
	<path clip-path="url(#SVGID_2_)" fill="#F18C00" d="M107.243,191.252c5.96,3.641,16.308-2.514,21.368-5.172   c26.707-14.027,57.971-37.392,66.822-67.594c5.95-20.324-1.259-43.382-7.507-58.308c-19.881,10.972-36.774,26.031-49.77,44.517   l31.828,5.17l-38.109,4.524c-0.059,0.111-0.117,0.197-0.178,0.293c-0.264,0.455-0.527,0.92-0.801,1.384l15.858,41.778   l-21.086-32.367c-8.369,15.773-15.696,33.279-20.166,49.979C104.269,180.051,102.146,188.137,107.243,191.252"/>
</g>
</svg>