<?xml version="1.0" encoding="UTF-8" standalone="no"?>
<svg
   width="326"
   height="346"
   viewBox="0 0 326 346"
   fill="none"
   version="1.1"
   id="svg54"
   sodipodi:docname="purple-ice-skate-up.svg"
   inkscape:version="1.1.2 (0a00cf5339, 2022-02-04)"
   xmlns:inkscape="http://www.inkscape.org/namespaces/inkscape"
   xmlns:sodipodi="http://sodipodi.sourceforge.net/DTD/sodipodi-0.dtd"
   xmlns="http://www.w3.org/2000/svg"
   xmlns:svg="http://www.w3.org/2000/svg">
  <sodipodi:namedview
     id="namedview56"
     pagecolor="#ffffff"
     bordercolor="#666666"
     borderopacity="1.0"
     inkscape:pageshadow="2"
     inkscape:pageopacity="0.0"
     inkscape:pagecheckerboard="0"
     showgrid="false"
     inkscape:zoom="1.2557803"
     inkscape:cx="38.621404"
     inkscape:cy="93.965478"
     inkscape:window-width="1916"
     inkscape:window-height="1053"
     inkscape:window-x="0"
     inkscape:window-y="0"
     inkscape:window-maximized="1"
     inkscape:current-layer="svg54" />
  <path
     d="m 212.47,233.759 c 0.921,-0.003 1.846,-0.086 2.765,-0.252 4.408,-0.8 8.289,-3.454 10.649,-7.279 L 237.925,206.705 77.6981,82.2282 50.497,87.6944 c -4.4958,0.9029 -7.9406,4.2517 -8.9884,8.7379 -1.0478,4.4867 0.5532,9.0257 4.1802,11.8457 L 202.727,230.429 c 2.804,2.182 6.245,3.339 9.743,3.33 z m 21.074,-26.257 -10.47,16.974 c -1.867,3.028 -4.938,5.128 -8.427,5.76 -3.488,0.632 -7.095,-0.254 -9.898,-2.434 L 47.7108,105.651 c -2.5894,-2.015 -3.7325,-5.257 -2.9847,-8.4596 0.7487,-3.2039 3.2076,-5.5957 6.419,-6.2403 l 25.7235,-5.1692 z"
     fill="#000000"
     id="path2" />
  <path
     d="m 208.111,208.568 c 0.748,-0.002 1.497,-0.07 2.243,-0.205 3.577,-0.649 6.725,-2.802 8.64,-5.905 L 228.663,186.78 101.817,88.2355 80.19,92.5809 c -3.6847,0.7405 -6.5072,3.4846 -7.3662,7.1613 -0.859,3.6758 0.454,7.3948 3.4251,9.7068 l 123.9551,96.418 c 2.275,1.769 5.067,2.708 7.905,2.701 z m 16.173,-20.992 -8.1,13.13 c -1.422,2.305 -3.76,3.905 -6.417,4.387 -2.656,0.482 -5.403,-0.194 -7.538,-1.854 L 78.2734,106.821 c -1.9344,-1.505 -2.7894,-3.926 -2.2304,-6.321 0.5599,-2.3931 2.3973,-4.1795 4.7959,-4.6625 l 20.1491,-4.0483 z"
     fill="#000000"
     id="path4" />
  <path
     d="M 253.007,13.4545 194.316,85.0082 115.187,57.1636 C 104.28,53.3248 92.152,56.9354 85.0832,66.1259 L 71.7594,83.4499 235.182,210.41 338.96,80.2307 Z"
     fill="#554596"
     id="path6" />
  <mask
     id="mask0_382_305"
     maskUnits="userSpaceOnUse"
     x="83"
     y="13"
     width="268"
     height="198">
    <path
       d="M 265.007,13.4545 206.316,85.0082 127.187,57.1636 C 116.28,53.3248 104.152,56.9354 97.0832,66.1259 L 83.7594,83.4499 247.182,210.41 350.96,80.2307 Z"
       fill="#ffffff"
       id="path8" />
  </mask>
  <g
     mask="url(#mask0_382_305)"
     id="g39"
     transform="translate(-12)">
    <path
       d="M 90.0122,68.7442 276.073,196.965 274.204,199.705 88.1429,71.4842 Z"
       fill="#000000"
       id="path11" />
    <path
       d="m 129.748,44.2221 19.925,27.4512 67.066,41.0907 82.447,-76.7636"
       fill="#554596"
       id="path13" />
    <path
       d="m 216.946,114.836 83.363,-77.6168 -2.247,-2.4377 -81.53,75.9105 -65.718,-40.265 -19.732,-27.1835 -2.67,1.9571 20.12,27.7191 z"
       fill="#000000"
       id="path15" />
    <path
       d="m 175.341,71.1845 4.111,32.2385 -3.279,0.422 -4.11,-32.2383 z"
       fill="#000000"
       id="path17" />
    <path
       d="m 192.274,67.5443 5.837,45.7797 -3.279,0.422 -5.837,-45.7794 z"
       fill="#000000"
       id="path19" />
    <path
       d="m 202.343,59.6874 20.188,65.0136 -3.155,0.989 -20.188,-65.0129 z"
       fill="#000000"
       id="path21" />
    <path
       d="m 202.334,56.3996 43.143,52.5194 -2.55,2.116 -43.142,-52.5197 z"
       fill="#000000"
       id="path23" />
    <path
       d="m 212.068,36.7268 43.143,52.5199 -2.55,2.1151 -43.142,-52.5198 z"
       fill="#000000"
       id="path25" />
    <path
       d="m 226.826,21.8178 43.142,52.5199 -2.549,2.1152 -43.142,-52.5199 z"
       fill="#000000"
       id="path27" />
    <path
       d="m 241.608,6.88338 43.143,52.51982 -2.55,2.1152 -43.142,-52.51983 z"
       fill="#000000"
       id="path29" />
    <path
       d="m 242.102,111.558 c -2.367,0.007 -4.29,-1.917 -4.297,-4.296 -0.006,-2.379 1.908,-4.312 4.275,-4.318 2.367,-0.007 4.291,1.917 4.297,4.296 0.006,2.379 -1.908,4.312 -4.275,4.318 z"
       fill="#554596"
       id="path31" />
    <path
       d="m 220.031,126.742 c -2.367,0.006 -4.291,-1.918 -4.297,-4.297 -0.006,-2.379 1.908,-4.312 4.275,-4.318 2.367,-0.006 4.291,1.917 4.297,4.296 0.006,2.379 -1.908,4.312 -4.275,4.319 z"
       fill="#554596"
       id="path33" />
    <path
       d="m 196.049,114.923 c -2.367,0.006 -4.29,-1.918 -4.297,-4.297 -0.006,-2.379 1.908,-4.312 4.275,-4.318 2.367,-0.007 4.291,1.917 4.297,4.296 0.006,2.379 -1.908,4.312 -4.275,4.319 z"
       fill="#554596"
       id="path35" />
    <path
       d="m 177.435,105.163 c -2.367,0.007 -4.291,-1.917 -4.297,-4.296 -0.006,-2.3788 1.907,-4.3123 4.274,-4.3185 2.367,-0.0061 4.291,1.9174 4.297,4.2965 0.007,2.379 -1.907,4.312 -4.274,4.318 z"
       fill="#554596"
       id="path37" />
  </g>
  <g
     clip-path="url(#clip0_382_305)"
     id="g45"
     transform="translate(-12)">
    <path
       d="m 264.88,37.8536 0.381,-26.1465 c 0.067,-4.61585 -2.52,-8.59682 -6.754,-10.38903 -4.232,-1.793046 -8.875,-0.872296 -12.114,2.40038 -4.293,4.33775 -4.275,11.37785 0.041,15.69235 z M 254.121,3.75566 c 1.131,-0.00295 2.202,0.24178 3.103,0.62401 2.324,0.98402 4.788,3.41293 4.732,7.27783 L 261.688,29.9754 248.766,17.055 c -3.024,-3.023 -3.037,-7.95504 -0.029,-10.99455 1.661,-1.67797 3.598,-2.30015 5.384,-2.30479 z"
       fill="#000000"
       id="path41" />
    <path
       d="m 287.799,44.9658 c 2.802,-0.0073 5.52,-1.1149 7.651,-3.2277 3.27,-3.242 4.205,-7.9024 2.441,-12.1646 -1.134,-2.7364 -3.259,-4.8655 -5.986,-5.9955 -2.727,-1.1292 -5.728,-1.1238 -8.45,0.0145 l -24.02,10.048 23.88,10.3809 c 1.467,0.6383 2.988,0.9483 4.484,0.9444 z m -0.121,-18.9066 c 1.005,-0.0026 2.01,0.1941 2.967,0.5911 1.911,0.7916 3.399,2.2828 4.194,4.2003 1.478,3.5694 0.086,6.7425 -1.709,8.523 -1.796,1.7789 -4.972,3.1343 -8.503,1.5994 l -16.73,-7.2723 16.829,-7.0399 c 0.951,-0.3987 1.951,-0.599 2.952,-0.6016 z"
       fill="#000000"
       id="path43" />
  </g>
  <path
     d="M 0.9075,119.144 301.28,343.997 M 5.8822,100.925 179.307,230.187"
     stroke="#554596"
     stroke-width="3"
     id="path47" />
  <defs
     id="defs52">
    <clipPath
       id="clip0_382_305">
      <rect
         width="297.81601"
         height="233.265"
         fill="#ffffff"
         transform="matrix(-0.999997,0.0026016,0.0026016,0.999997,350.752,0.164429)"
         id="rect49"
         x="0"
         y="0" />
    </clipPath>
  </defs>
</svg>
