<?xml version="1.0" encoding="UTF-8" standalone="no"?>
<svg
   width="281"
   height="342"
   viewBox="0 0 281 342"
   fill="none"
   version="1.1"
   id="svg298"
   sodipodi:docname="purple-ice-skate-down.svg"
   inkscape:version="1.1.2 (0a00cf5339, 2022-02-04)"
   xmlns:inkscape="http://www.inkscape.org/namespaces/inkscape"
   xmlns:sodipodi="http://sodipodi.sourceforge.net/DTD/sodipodi-0.dtd"
   xmlns="http://www.w3.org/2000/svg"
   xmlns:svg="http://www.w3.org/2000/svg">
  <sodipodi:namedview
     id="namedview300"
     pagecolor="#ffffff"
     bordercolor="#666666"
     borderopacity="1.0"
     inkscape:pageshadow="2"
     inkscape:pageopacity="0.0"
     inkscape:pagecheckerboard="0"
     showgrid="false"
     inkscape:zoom="1.412588"
     inkscape:cx="192.20041"
     inkscape:cy="231.49"
     inkscape:window-width="1916"
     inkscape:window-height="1053"
     inkscape:window-x="0"
     inkscape:window-y="0"
     inkscape:window-maximized="1"
     inkscape:current-layer="svg298" />
  <g
     clip-path="url(#clip0_382_240)"
     id="g289"
     transform="translate(-18,-66)">
    <path
       d="m 231.466,240.487 c 0.283,0.872 0.49,1.773 0.618,2.694 0.607,4.418 -0.703,8.911 -3.592,12.328 L 213.747,272.942 46.3963,159.865 43.151,132.438 c -0.5369,-4.533 1.5655,-8.828 5.4858,-11.208 3.9202,-2.379 8.7102,-2.269 12.501,0.29 L 225.302,232.299 c 2.931,1.978 5.091,4.875 6.164,8.188 z m -18.321,28.064 12.82,-15.159 c 2.287,-2.703 3.323,-6.259 2.843,-9.755 -0.482,-3.496 -2.437,-6.634 -5.367,-8.612 L 59.2776,124.246 c -2.7076,-1.826 -6.128,-1.905 -8.927,-0.206 -2.7996,1.699 -4.3017,4.766 -3.9178,8.004 l 3.0691,25.937 z"
       fill="#000000"
       id="path246" />
    <path
       d="m 206.284,244.158 c 0.23,0.708 0.397,1.438 0.5,2.186 0.493,3.585 -0.57,7.229 -2.913,10.001 l -11.842,14 L 59.5431,180.826 56.9623,159.02 c -0.4396,-3.715 1.2833,-7.235 4.4961,-9.185 3.2121,-1.951 7.1373,-1.859 10.2434,0.237 l 129.5802,87.441 c 2.378,1.605 4.13,3.956 5.001,6.643 z m -14.857,21.797 9.917,-11.726 c 1.741,-2.059 2.53,-4.766 2.165,-7.429 -0.366,-2.661 -1.856,-5.052 -4.087,-6.558 L 69.8424,152.8 c -2.0225,-1.364 -4.578,-1.424 -6.6704,-0.154 -2.0913,1.27 -3.2129,3.561 -2.9277,5.98 l 2.4046,20.316 z"
       fill="#000000"
       id="path248" />
    <path
       d="M 35.5747,347.01 85.1123,269.34 34.2825,203.091 c -7.0073,-9.132 -7.3441,-21.724 -0.836,-31.256 L 45.7144,153.869 216.403,269.2 125.35,407.67 Z"
       fill="#554596"
       id="path250" />
    <mask
       id="mask0_382_240"
       maskUnits="userSpaceOnUse"
       x="28"
       y="153"
       width="189"
       height="255">
      <path
         d="M 35.5747,347.01 85.1123,269.34 34.2825,203.091 c -7.0073,-9.132 -7.3441,-21.724 -0.836,-31.256 L 45.7144,153.869 216.403,269.2 125.35,407.67 Z"
         fill="#ffffff"
         id="path252" />
    </mask>
    <g
       mask="url(#mask0_382_240)"
       id="g283">
      <path
         d="m 33.736,164.335 178.887,136.361 2.014,-2.617 L 35.75,161.719 Z"
         fill="#000000"
         id="path255" />
      <path
         d="m 22.8307,209.518 32.1378,10.357 59.6295,50.738 -47.1155,101.758"
         fill="#554596"
         id="path257" />
      <path
         d="M 116.622,270.168 68.9832,373.057 65.9816,371.685 112.574,271.058 54.1425,221.341 22.3178,211.084 l 1.0255,-3.132 32.4513,10.458 z"
         fill="#000000"
         id="path259" />
      <path
         d="m 62.4494,244.312 31.773,-6.086 -0.6151,-3.233 -31.773,6.086 z"
         fill="#000000"
         id="path261" />
      <path
         d="m 64.2452,261.459 45.1188,-8.643 -0.615,-3.233 -45.1189,8.643 z"
         fill="#000000"
         id="path263" />
      <path
         d="m 59.9277,273.417 67.7563,-1.018 -0.04,-3.291 -67.7563,1.017 z"
         fill="#000000"
         id="path265" />
      <path
         d="m 56.8143,274.426 63.0387,24.566 1.213,-3.067 -63.039,-24.566 z"
         fill="#000000"
         id="path267" />
      <path
         d="m 41.2133,289.723 63.0387,24.566 1.213,-3.066 -63.0393,-24.567 z"
         fill="#000000"
         id="path269" />
      <path
         d="m 31.6742,308.299 63.0391,24.566 1.2124,-3.066 -63.0391,-24.566 z"
         fill="#000000"
         id="path271" />
      <path
         d="m 22.1185,326.906 63.0392,24.566 1.2124,-3.066 -63.0392,-24.566 z"
         fill="#000000"
         id="path273" />
      <path
         d="m 121.306,294.983 c -0.727,-2.241 -3.142,-3.466 -5.395,-2.736 -2.252,0.73 -3.489,3.139 -2.763,5.38 0.727,2.242 3.142,3.467 5.395,2.736 2.252,-0.73 3.489,-3.139 2.763,-5.38 z"
         fill="#554596"
         id="path275" />
      <path
         d="m 128.841,269.403 c -0.726,-2.242 -3.141,-3.467 -5.394,-2.736 -2.253,0.73 -3.49,3.139 -2.763,5.38 0.726,2.242 3.142,3.466 5.394,2.736 2.253,-0.73 3.49,-3.139 2.763,-5.38 z"
         fill="#554596"
         id="path277" />
      <path
         d="m 110.238,250.37 c -0.726,-2.241 -3.142,-3.466 -5.394,-2.736 -2.253,0.731 -3.49,3.139 -2.763,5.381 0.726,2.241 3.141,3.466 5.394,2.736 2.253,-0.73 3.49,-3.139 2.763,-5.381 z"
         fill="#554596"
         id="path279" />
      <path
         d="m 95.2448,235.778 c -0.7266,-2.241 -3.1417,-3.466 -5.3944,-2.736 -2.2526,0.731 -3.4897,3.14 -2.7631,5.381 0.7266,2.241 3.1417,3.466 5.3944,2.736 2.2526,-0.73 3.4897,-3.139 2.7631,-5.381 z"
         fill="#554596"
         id="path281" />
    </g>
    <path
       d="m 58.6197,339.34 -24.6196,8.451 c -4.3462,1.492 -8.9132,0.276 -11.9188,-3.174 -3.0061,-3.45 -3.5714,-8.127 -1.4774,-12.204 2.7754,-5.405 9.4417,-7.566 14.8593,-4.817 z m -35.5893,0.373 c 0.3473,1.071 0.9102,2.008 1.5506,2.742 1.6501,1.895 4.7103,3.474 8.3496,2.225 l 17.2479,-5.921 -16.2227,-8.228 c -3.7956,-1.925 -8.4658,-0.411 -10.4108,3.375 -1.0736,2.09 -1.0629,4.116 -0.5146,5.807 z"
       fill="#000000"
       id="path285" />
    <path
       d="m 72.441,358.824 c 0.8603,2.654 0.6533,5.568 -0.686,8.238 -2.0555,4.097 -6.1754,6.424 -10.754,6.073 -2.9396,-0.226 -5.6116,-1.578 -7.5245,-3.808 -1.9121,-2.231 -2.8356,-5.071 -2.601,-7.999 l 2.0737,-25.835 17.2108,19.381 c 1.0578,1.19 1.8219,2.534 2.281,3.95 z m -17.9251,5.736 c 0.3085,0.951 0.8057,1.842 1.4776,2.624 1.34,1.563 3.2115,2.51 5.2714,2.668 3.8346,0.295 6.4059,-2.005 7.5349,-4.254 1.1274,-2.249 1.4269,-5.674 -1.1177,-8.539 l -12.0572,-13.578 -1.4533,18.1 c -0.0827,1.023 0.0371,2.031 0.3443,2.979 z"
       fill="#000000"
       id="path287" />
  </g>
  <path
     d="M 29.3091,22.4499 279.818,191.432 M 35.7886,1.8789 180.483,98.847"
     stroke="#554596"
     stroke-width="3"
     id="path291" />
  <defs
     id="defs296">
    <clipPath
       id="clip0_382_240">
      <rect
         width="296.45801"
         height="232.201"
         fill="#ffffff"
         transform="rotate(-107.962,181.8997,198.11724)"
         id="rect293"
         x="0"
         y="0" />
    </clipPath>
  </defs>
</svg>
