<svg width="25" height="22" viewBox="0 0 25 22" fill="none" xmlns="http://www.w3.org/2000/svg">
<g clip-path="url(#clip0_231_225)">
<path d="M11.6431 22L3.6746 20.6447C3.74665 20.2308 3.78312 19.8086 3.78312 19.3896C3.78312 17.3234 2.89173 15.345 1.33731 13.9617L0.00012207 12.7716L0.00012207 9.21424L1.33803 8.02355C2.89155 6.64164 3.78241 4.66349 3.78241 2.59621C3.78294 2.18446 3.74593 1.75957 3.67226 1.32776L11.6456 0C11.7944 0.872685 11.8691 1.74786 11.868 2.60136C11.868 5.60507 10.9671 8.52159 9.32592 10.993C10.9677 13.4651 11.8689 16.3829 11.8689 19.3894C11.8689 20.2614 11.7929 21.1397 11.6431 22Z" fill="#FFA04B"/>
<path d="M24.7741 22L16.8056 20.6447C16.8776 20.2308 16.9141 19.8086 16.9141 19.3896C16.9141 17.3233 16.0227 15.345 14.4683 13.9617L13.1311 12.7715V9.21421L14.469 8.02352C16.0225 6.64161 16.9134 4.66346 16.9134 2.59619C16.9139 2.18515 16.8769 1.7599 16.8031 1.32667L24.7768 0.0010376C24.9254 0.874433 25.0001 1.74925 24.999 2.60151C24.999 5.60522 24.0981 8.52174 22.4569 10.9931C24.0986 13.4652 24.9999 16.383 24.9999 19.3896C24.9999 20.2615 24.9239 21.1397 24.7741 22Z" fill="#FFA04B"/>
</g>
<defs>
<clipPath id="clip0_231_225">
<rect width="25" height="22" fill="white"/>
</clipPath>
</defs>
</svg>
