<svg width="25" height="22" viewBox="0 0 25 22" fill="none" xmlns="http://www.w3.org/2000/svg">
<g clip-path="url(#clip0_231_228)">
<path d="M20.7177 19.4031C20.7173 19.6845 20.7333 19.9703 20.7651 20.2591L13.7716 21.4237C13.678 20.7424 13.6312 20.0635 13.6321 19.3993L13.6321 19.3986C13.6321 16.495 14.503 13.6745 16.0907 11.2836L16.2744 11.007L16.0907 10.7304C14.5025 8.33888 13.6312 5.51707 13.6312 2.61059C13.6312 1.93302 13.6787 1.25125 13.7725 0.577844L20.7628 1.76675C20.7323 2.04724 20.717 2.32944 20.717 2.61042C20.717 4.82048 21.6702 6.93433 23.3304 8.41178C23.3304 8.41178 23.3304 8.41179 23.3304 8.4118L24.5 9.45278L24.5 12.5614L23.3298 13.6029C23.3297 13.6029 23.3297 13.6029 23.3297 13.6029C21.6704 15.079 20.7179 17.1924 20.7177 19.4031ZM20.7177 19.4031L21.2177 19.4038M20.7177 19.4031C20.7177 19.4033 20.7177 19.4036 20.7177 19.4038L21.2177 19.4038M21.2177 19.4038C21.2172 19.7951 21.2506 20.1983 21.3172 20.608L21.2177 19.4038Z" stroke="#FFA04B"/>
<path d="M7.58661 19.4035C7.58626 19.6846 7.60226 19.9707 7.63415 20.26L0.64047 21.4227C0.546874 20.7411 0.500132 20.0624 0.500971 19.3991L0.500971 19.3985C0.500971 16.4949 1.37191 13.6743 2.95962 11.2835L3.14331 11.0069L2.95961 10.7302C1.37139 8.33873 0.500076 5.51692 0.500076 2.61044C0.500076 1.93288 0.547548 1.25123 0.641405 0.57787L7.63168 1.76677C7.60123 2.04727 7.5859 2.32947 7.5859 2.61044C7.5859 4.82051 8.53913 6.93435 10.1993 8.4118C10.1993 8.41181 10.1993 8.41182 10.1993 8.41182L11.3689 9.45281L11.3689 12.5614L10.1987 13.6029C10.1986 13.6029 10.1986 13.6029 10.1986 13.603C8.53923 15.0791 7.58671 17.1927 7.58661 19.4035ZM7.58661 19.4035C7.58661 19.4034 7.58661 19.4033 7.58661 19.4032L8.08661 19.4038L7.58661 19.4038C7.58661 19.4037 7.58661 19.4036 7.58661 19.4035Z" stroke="#FFA04B"/>
</g>
<defs>
<clipPath id="clip0_231_228">
<rect width="25" height="22" fill="white" transform="translate(25 22) rotate(-180)"/>
</clipPath>
</defs>
</svg>
