<svg width="288" height="292" viewBox="0 0 288 292" fill="none" xmlns="http://www.w3.org/2000/svg">
<path d="M237.975 54.1089L209.578 110.437L248.771 152.068C254.174 157.807 255.272 166.362 251.494 173.304L244.375 186.39L120.142 119.578L172.634 18.9687L237.975 54.1089Z" fill="#554596"/>
<mask id="mask0_223_283" style="mask-type:luminance" maskUnits="userSpaceOnUse" x="120" y="18" width="134" height="169">
<path d="M237.975 54.1089L209.578 110.437L248.771 152.068C254.174 157.807 255.272 166.362 251.494 173.304L244.375 186.39L120.142 119.578L172.634 18.9687L237.975 54.1089Z" fill="white"/>
</mask>
<g mask="url(#mask0_223_283)">
<path d="M251.814 178.434L120.548 97.8604L119.356 99.7816L250.622 180.355L251.814 178.434Z" fill="black"/>
<path d="M256.13 146.901L233.522 142.059L189.402 111.601L214.49 39.0292" fill="#554596"/>
<path d="M188.054 112.044L213.42 38.6658L215.559 39.3932L190.75 111.158L233.984 141.004L256.372 145.799L255.889 148.003L233.06 143.114L188.054 112.044Z" fill="black"/>
<path d="M226.742 125.926L205.515 132.262L206.157 134.422L227.384 128.086L226.742 125.926Z" fill="black"/>
<path d="M224.337 114.368L194.194 123.365L194.836 125.525L224.979 116.529L224.337 114.368Z" fill="black"/>
<path d="M226.454 105.924L180.364 111.286L180.618 113.525L226.709 108.164L226.454 105.924Z" fill="black"/>
<path d="M228.506 105.022L183.866 92.629L183.252 94.802L227.891 107.195L228.506 105.022Z" fill="black"/>
<path d="M238.081 93.5258L193.441 81.1328L192.826 83.3053L237.466 95.6983L238.081 93.5258Z" fill="black"/>
<path d="M243.299 80.2132L198.66 67.8202L198.045 69.9927L242.685 82.3857L243.299 80.2132Z" fill="black"/>
<path d="M248.527 66.8783L203.888 54.4853L203.273 56.6578L247.913 69.0508L248.527 66.8783Z" fill="black"/>
<path d="M183.153 95.4606C183.803 96.9375 185.532 97.6056 187.017 96.9529C188.501 96.3002 189.178 94.5738 188.528 93.0969C187.879 91.62 186.149 90.9519 184.665 91.6046C183.181 92.2573 182.504 93.9837 183.153 95.4606Z" fill="#554596"/>
<path d="M179.782 113.407C180.431 114.884 182.161 115.552 183.645 114.899C185.13 114.247 185.807 112.52 185.157 111.043C184.508 109.566 182.778 108.898 181.294 109.551C179.809 110.204 179.132 111.93 179.782 113.407Z" fill="#554596"/>
<path d="M193.767 125.092C194.417 126.568 196.146 127.237 197.631 126.584C199.115 125.931 199.792 124.205 199.142 122.728C198.493 121.251 196.763 120.583 195.279 121.236C193.794 121.888 193.118 123.615 193.767 125.092Z" fill="#554596"/>
<path d="M204.987 134C205.636 135.476 207.366 136.145 208.851 135.492C210.335 134.839 211.012 133.113 210.362 131.636C209.713 130.159 207.983 129.491 206.499 130.144C205.014 130.796 204.338 132.523 204.987 134Z" fill="#554596"/>
</g>
<g clip-path="url(#clip0_223_283)">
<path d="M66.1946 214.992C65.7197 214.581 65.2794 214.127 64.8784 213.632C62.9573 211.259 62.1327 208.161 62.6148 205.136L65.078 189.697L203.203 196.659L214.822 211.58C216.743 214.046 217.033 217.308 215.579 220.091C214.125 222.875 211.279 224.507 208.151 224.351L72.708 217.605C70.2896 217.485 67.9975 216.553 66.1946 214.992ZM66.9865 192.056L64.8455 205.481C64.4633 207.875 65.116 210.326 66.6364 212.204C68.1572 214.082 70.4148 215.228 72.8321 215.349L208.276 222.095C210.509 222.205 212.541 221.04 213.579 219.053C214.618 217.065 214.411 214.736 213.039 212.974L202.051 198.864L66.9865 192.056Z" fill="black"/>
<path d="M79.6497 203.918C79.2643 203.585 78.9072 203.217 78.5823 202.815C77.0233 200.889 76.3547 198.377 76.7456 195.922L78.7238 183.523L188.073 189.035L197.311 200.898C198.885 202.92 199.123 205.592 197.931 207.874C196.74 210.154 194.408 211.492 191.845 211.364L84.9352 206.039C82.9731 205.942 81.1132 205.185 79.6506 203.919L79.6497 203.918ZM80.6318 185.882L78.9759 196.267C78.6852 198.09 79.182 199.956 80.3395 201.387C81.4973 202.817 83.2171 203.69 85.058 203.782L191.968 209.107C193.636 209.189 195.155 208.319 195.931 206.834C196.706 205.348 196.552 203.608 195.528 202.292L186.92 191.24L80.6318 185.882Z" fill="black"/>
<path d="M143.235 83.1667L141.728 146.23L194.985 167.039C202.327 169.907 206.986 177.166 206.55 185.057L205.727 199.931L64.8476 192.83L69.1383 79.432L143.235 83.1667Z" fill="#554596"/>
<mask id="mask1_223_283" style="mask-type:luminance" maskUnits="userSpaceOnUse" x="64" y="79" width="143" height="121">
<path d="M143.235 83.1667L141.728 146.23L194.985 167.039C202.327 169.907 206.986 177.166 206.55 185.057L205.727 199.931L64.8476 192.83L69.1383 79.432L143.235 83.1667Z" fill="white"/>
</mask>
<g mask="url(#mask1_223_283)">
<path d="M209.037 189.554L55.9033 173.036L55.6503 175.282L208.784 191.801L209.037 189.554Z" fill="black"/>
<path d="M199.418 159.215L176.917 164.534L124 155.931L115.553 79.6115" fill="#554596"/>
<path d="M122.972 156.909L114.431 79.7417L116.675 79.4817L125.028 154.953L176.882 163.382L199.164 158.116L199.673 160.315L176.953 165.685L122.972 156.909Z" fill="black"/>
<path d="M163.876 152.865L147.415 167.689L148.921 169.366L165.382 154.542L163.876 152.865Z" fill="black"/>
<path d="M156.748 143.454L133.373 164.505L134.879 166.181L158.254 145.131L156.748 143.454Z" fill="black"/>
<path d="M155.041 134.918L115.699 159.521L116.889 161.436L156.231 136.832L155.041 134.918Z" fill="black"/>
<path d="M156.508 133.223L110.865 141.164L111.241 143.391L156.884 135.45L156.508 133.223Z" fill="black"/>
<path d="M160.229 118.732L114.587 126.673L114.963 128.9L160.605 120.959L160.229 118.732Z" fill="black"/>
<path d="M159.237 104.468L113.595 112.409L113.971 114.635L159.613 106.694L159.237 104.468Z" fill="black"/>
<path d="M158.243 90.1791L112.601 98.1202L112.977 100.346L158.619 92.4054L158.243 90.1791Z" fill="black"/>
<path d="M111.435 144.028C112.655 145.084 114.504 144.946 115.565 143.72C116.626 142.494 116.498 140.644 115.278 139.588C114.058 138.532 112.209 138.67 111.148 139.896C110.086 141.122 110.215 142.972 111.435 144.028Z" fill="#554596"/>
<path d="M116.083 161.687C117.303 162.743 119.152 162.605 120.213 161.379C121.274 160.153 121.146 158.303 119.926 157.247C118.706 156.191 116.857 156.329 115.796 157.555C114.734 158.781 114.863 160.631 116.083 161.687Z" fill="#554596"/>
<path d="M133.727 166.248C134.947 167.304 136.796 167.166 137.857 165.94C138.919 164.714 138.79 162.864 137.57 161.808C136.35 160.752 134.501 160.89 133.44 162.116C132.379 163.342 132.507 165.192 133.727 166.248Z" fill="#554596"/>
<path d="M147.683 169.486C148.903 170.541 150.752 170.403 151.813 169.177C152.874 167.951 152.745 166.101 151.526 165.046C150.306 163.99 148.456 164.128 147.395 165.354C146.334 166.58 146.463 168.43 147.683 169.486Z" fill="#554596"/>
</g>
<path d="M132.45 95.8259L143.881 82.151C145.899 79.7369 149.006 78.8312 151.99 79.7882C154.974 80.7445 156.962 83.2846 157.18 86.4157C157.468 90.5658 154.328 94.1941 150.18 94.5032L132.45 95.8259ZM153.171 82.998C152.588 82.4933 151.926 82.1435 151.291 81.9402C149.653 81.4149 147.3 81.574 145.61 83.5953L137.602 93.1759L150.023 92.2493C152.929 92.0325 155.129 89.4906 154.927 86.5829C154.816 84.9775 154.092 83.7946 153.171 82.998Z" fill="black"/>
<path d="M117.448 89.3066C116.003 88.0565 115.092 86.2757 114.931 84.2364C114.683 81.1075 116.273 78.2844 119.08 76.8677C120.883 75.9584 122.927 75.8039 124.839 76.4329C126.749 77.0624 128.297 78.3997 129.197 80.1985L137.135 96.0714L120.184 90.8131C119.142 90.4904 118.218 89.9739 117.448 89.3066ZM125.919 79.5946C125.401 79.1463 124.794 78.8008 124.123 78.5801C122.784 78.1394 121.352 78.2475 120.089 78.8847C117.738 80.0708 117.046 82.3292 117.181 84.0473C117.317 85.7646 118.355 87.8775 120.861 88.6547L132.737 92.3388L127.176 81.2182C126.862 80.589 126.434 80.041 125.919 79.5946Z" fill="black"/>
</g>
<defs>
<clipPath id="clip0_223_283">
<rect width="203" height="159" fill="white" transform="translate(104.855 38.1669) rotate(40.8777)"/>
</clipPath>
</defs>
</svg>
