<svg width="103" height="21" viewBox="0 0 103 21" fill="none" xmlns="http://www.w3.org/2000/svg">
<g clip-path="url(#clip0_142_27)">
<path d="M15.343 10.405L14.6188 15.301L0.00012207 19.9786L0.624093 15.7593L9.65584 12.8507L9.71364 12.4605L1.55262 9.48166L2.11903 5.65247L15.343 10.405Z" fill="#E68264"/>
<path d="M17.2226 6.27633H21.007L19.0615 19.6971H15.2771L17.2226 6.27633ZM16.7099 2.51368C16.9255 1.09206 18.3308 0.0131836 20.0068 0.0131836C21.6828 0.0131836 22.8182 1.09206 22.6014 2.51368C22.3859 3.93436 20.9806 5.01324 19.3046 5.01324C17.6286 5.01324 16.4931 3.93436 16.7099 2.51368Z" fill="#E68264"/>
<path d="M21.2796 12.9873C21.8475 8.98695 25.5227 5.96021 29.7934 5.96021C33.6581 5.96021 36.3077 8.4607 36.3343 11.9341H32.2264C31.7941 11.0919 30.6044 10.5391 29.1179 10.5391C27.0635 10.5391 25.3875 11.5923 25.1983 12.987C25.009 14.3809 26.3613 15.4341 28.4147 15.4341C29.9013 15.4341 31.2526 14.8812 31.902 14.0391H36.0098C35.0106 17.5125 31.6049 20.0129 27.7392 20.0129C23.4685 20.0129 20.712 16.9864 21.2799 12.987L21.2796 12.9873Z" fill="#E68264"/>
<path d="M42.3435 14.0662C42.2356 14.8289 42.6682 15.1707 43.7497 15.1707H45.6677L45.0195 19.6973H42.6404C39.3975 19.6973 37.9647 18.1975 38.3973 15.1976L39.0465 10.7504H36.5321L37.1813 6.27633H39.6946L40.1006 3.3815L44.0466 2.32947L43.4788 6.27633H47.2355L46.5873 10.7504H42.8294L42.343 14.0662H42.3435Z" fill="#E68264"/>
<path d="M46.6464 12.9873C47.2142 8.98695 50.8895 5.96021 55.1601 5.96021C59.4308 5.96021 62.1874 8.98672 61.6195 12.9873C61.0528 16.9867 57.3764 20.0132 53.1057 20.0132C48.8351 20.0132 46.0785 16.9867 46.6464 12.9873ZM57.7011 12.9873C57.8903 11.5923 56.539 10.5393 54.4846 10.5393C52.4302 10.5393 50.7542 11.5925 50.565 12.9873C50.3758 14.3811 51.7281 15.4343 53.7815 15.4343C55.8349 15.4343 57.5119 14.3811 57.7011 12.9873Z" fill="#E68264"/>
<path d="M63.8444 6.27633H67.6287L65.6832 19.6971H61.8989L63.8444 6.27633ZM63.3317 2.51368C63.5473 1.09206 64.9525 0.0131836 66.6285 0.0131836C68.3045 0.0131836 69.44 1.09206 69.2232 2.51368C69.0076 3.93436 67.6024 5.01324 65.9264 5.01324C64.2504 5.01324 63.1149 3.93436 63.3317 2.51368Z" fill="#E68264"/>
<path d="M78.2542 6.06647L77.4432 11.7242C74.3082 11.7242 72.6059 12.6189 72.2812 14.3555L71.4977 19.6973H67.7134L69.6589 6.27659H73.4433L72.9843 9.43502C74.4159 7.35547 76.2547 6.06647 78.2542 6.06647Z" fill="#E68264"/>
<path d="M92.5574 13.0923C92.5298 13.4341 92.4221 13.8819 92.3142 14.1969H81.3398C81.7184 15.3292 82.9618 16.0129 84.7995 16.0129C86.2323 16.0129 87.557 15.6185 88.0435 15.2232H92.071C90.6922 18.0655 87.5836 20.0132 84.07 20.0132C79.7993 20.0132 77.0427 16.9867 77.6106 12.9873C78.1785 8.98695 81.8537 5.96021 86.1244 5.96021C90.3951 5.96021 93.1792 8.96033 92.5574 13.0923ZM81.7184 11.7499H88.8809C88.5035 10.6185 87.2049 9.96076 85.5301 9.96076C83.8553 9.96076 82.4489 10.6444 81.7184 11.7499Z" fill="#E68264"/>
<path d="M102.944 6.17128C102.538 8.98673 100.079 11.092 97.1868 11.092C94.295 11.092 92.4022 8.98673 92.8082 6.17128C93.2132 3.35583 95.7264 1.22375 98.6194 1.22375C101.512 1.22375 103.349 3.35583 102.944 6.17128ZM98.3762 2.82865C96.159 2.82865 94.2947 4.27595 93.9967 6.17128C93.7271 8.06545 95.2137 9.48707 97.4299 9.48707C99.6186 9.48707 101.484 8.06545 101.755 6.17128C102.052 4.27595 100.565 2.82865 98.3762 2.82865ZM100.079 5.35483C99.9707 6.01369 99.5383 6.56538 98.9704 6.85583L99.7815 8.35566H98.6733L97.9426 7.09257H97.1328L96.9436 8.35566H95.8894L96.5652 3.59234H98.5107C99.5385 3.59234 100.214 4.3551 100.079 5.35483ZM98.2949 4.98734H97.4299L97.322 5.72325H98.187C98.7273 5.72325 98.9968 5.59157 99.052 5.35459C99.0784 5.11785 98.8352 4.98734 98.2949 4.98734Z" fill="#E68264"/>
</g>
<defs>
<clipPath id="clip0_142_27">
<rect width="103" height="20" fill="white" transform="translate(0 0.0131836)"/>
</clipPath>
</defs>
</svg>
