<svg width="360" height="623" viewBox="0 0 360 623" fill="none" xmlns="http://www.w3.org/2000/svg">
<g clip-path="url(#clip0_375_129)">
<path d="M106.971 190.644L104.465 191.562L182.45 404.161L184.956 403.243L106.971 190.644Z" fill="black"/>
<path d="M250.603 257.303L37.9873 335.242L38.9063 337.747L251.522 259.809L250.603 257.303Z" fill="black"/>
<path d="M256.508 315.582L33.3853 276.779L32.9284 279.408L256.051 318.211L256.508 315.582Z" fill="black"/>
<path d="M165.547 186.203L162.917 185.745L124.147 408.83L126.776 409.288L165.547 186.203Z" fill="black"/>
<path d="M58.6514 223.897L56.9412 225.945L230.786 371.092L232.496 369.044L58.6514 223.897Z" fill="black"/>
<path d="M216.163 209.659L71.0249 383.455L73.0734 385.165L218.211 211.369L216.163 209.659Z" fill="black"/>
<path d="M95.9766 402.681C37.9468 375.791 12.6085 306.714 39.4924 248.697C66.3764 190.681 135.459 165.357 193.489 192.247C251.519 219.137 276.857 288.214 249.973 346.231C223.089 404.248 154.006 429.571 95.9766 402.681ZM184.514 211.614C137.166 189.673 80.7993 210.336 58.8636 257.674C36.9278 305.012 57.6024 361.374 104.951 383.314C152.299 405.255 208.666 384.593 230.602 337.255C252.538 289.916 231.863 233.554 184.514 211.614Z" fill="#5BC5F2"/>
<path d="M464.367 573.388C406.338 546.498 380.999 477.421 407.883 419.404C434.767 361.387 503.85 336.064 561.879 362.954C619.909 389.844 645.248 458.921 618.364 516.938C591.479 574.955 522.397 600.278 464.367 573.388ZM552.905 382.321C505.557 360.38 449.19 381.042 427.254 428.38C405.318 475.719 425.993 532.081 473.342 554.021C520.69 575.962 577.057 555.299 598.992 507.961C620.928 460.623 600.254 404.261 552.905 382.321Z" fill="#5BC5F2"/>
<path d="M527.19 294.546C532.156 291.468 535.233 286.093 535.373 280.253L536.669 226.352L570.506 226.33C576.637 226.326 580.453 219.677 577.365 214.381L563.785 191.098C561.822 187.733 557.6 186.445 554.093 188.144C550.295 189.984 548.78 194.607 550.754 198.338L561.05 217.803L525.359 217.709L524.792 237.294C521.439 237.394 518.613 239.825 518.015 243.125L516.526 251.335L318.655 227.321L328.682 158.274L345.835 145.775L339.838 143.12L327.005 151.926L320.005 128.506L306.064 130.998L315.311 164.222L305.563 229.394L142.064 279.224L139.283 299.747L288.857 391.553L512.339 279.044L509.598 301.767L512.371 306.164C516.08 312.046 517.834 318.95 517.378 325.889L508.659 458.798L521.337 459.016L527.189 294.546L527.19 294.546ZM149.974 286.151L303.328 241.385L286.534 370.619L149.974 286.151ZM299.843 369.34L318.479 239.177L513.869 262.669L299.843 369.339L299.843 369.34Z" fill="#5BC5F2"/>
<path d="M274.042 416.353C292.604 424.954 314.623 416.883 323.223 398.325C331.822 379.767 323.746 357.75 305.184 349.149C286.622 340.547 264.603 348.619 256.004 367.177C247.404 385.735 255.48 407.752 274.042 416.353Z" fill="#5BC5F2"/>
<path d="M278.237 407.303C264.696 401.028 258.783 384.91 265.057 371.372C271.33 357.834 287.45 351.925 300.991 358.199C314.532 364.474 320.444 380.593 314.171 394.131C307.898 407.669 291.778 413.578 278.237 407.303ZM299.869 360.62C287.664 354.964 273.133 360.29 267.478 372.493C261.824 384.696 267.153 399.226 279.359 404.882C291.565 410.537 306.095 405.211 311.75 393.008C317.404 380.805 312.075 366.276 299.869 360.62Z" fill="black"/>
<path d="M285.027 392.647C290.494 395.18 296.979 392.803 299.511 387.338C302.044 381.872 299.665 375.388 294.199 372.855C288.732 370.322 282.248 372.699 279.715 378.164C277.183 383.63 279.561 390.114 285.027 392.647Z" fill="black"/>
<path d="M287.385 377.451L281.647 384.052L307.74 438.99L302.895 436.744C300.292 435.538 297.205 436.67 296 439.272L295.852 439.59C294.646 442.192 295.779 445.279 298.381 446.485L324.001 458.357C326.604 459.563 329.691 458.431 330.896 455.829C332.102 453.227 330.97 450.141 328.367 448.935L319.699 444.918L287.386 377.451L287.385 377.451Z" fill="black"/>
<path d="M362.05 157.744L321.216 138.822C318.34 137.489 315.052 137.353 312.076 138.444C308.269 139.839 304.065 139.665 300.387 137.961L295.907 135.885C286.627 131.584 279.435 123.775 275.913 114.173C274.941 111.524 275.062 108.598 276.248 106.039C278.954 100.199 286.187 98.0822 291.617 101.541L331.547 126.976L368.395 144.051C372.177 145.803 373.822 150.289 372.07 154.07C370.318 157.852 365.832 159.496 362.05 157.744Z" fill="black"/>
<path d="M136.981 314.19C146.221 318.472 157.181 314.454 161.462 305.216C165.743 295.979 161.723 285.019 152.483 280.737C143.243 276.456 132.283 280.474 128.002 289.711C123.721 298.949 127.742 309.909 136.981 314.19Z" fill="#5BC5F2"/>
</g>
<defs>
<clipPath id="clip0_375_129">
<rect width="638" height="390" fill="white" transform="translate(154.707 0.0596924) rotate(24.8623)"/>
</clipPath>
</defs>
</svg>
