<svg width="360" height="468" viewBox="0 0 360 468" fill="none" xmlns="http://www.w3.org/2000/svg">
<g clip-path="url(#clip0_158_98)">
<path d="M-5.07381 359.399L-12.2352 364.571L-44.74 341.138C-49.221 337.908 -55.2665 337.911 -59.7458 341.147L-68.19 347.246L-10.4333 427.334L25.3044 401.522L-5.07381 359.399Z" fill="#E68264"/>
<mask id="mask0_158_98" style="mask-type:luminance" maskUnits="userSpaceOnUse" x="-69" y="338" width="95" height="90">
<path d="M-5.07381 359.399L-12.2352 364.571L-44.74 341.138C-49.221 337.908 -55.2665 337.911 -59.7458 341.147L-68.19 347.246L-10.4333 427.334L25.3044 401.522L-5.07381 359.399Z" fill="white"/>
</mask>
<g mask="url(#mask0_158_98)">
<path d="M-63.3433 341.385L-64.5697 342.383L3.39957 426.109L4.62599 425.112L-63.3433 341.385Z" fill="black"/>
<path d="M-11.4143 379.598L-37.0854 351.222L-42.5643 335.846L-41.0763 335.314L-35.7029 350.394L-10.9964 377.703L8.87553 369.261L9.49233 370.716L-11.4143 379.598Z" fill="black"/>
<path d="M-10.1967 350.976L-11.6504 351.596L1.0305 381.41L2.48423 380.791L-10.1967 350.976Z" fill="black"/>
<path d="M0.626871 381.551C1.71952 381.844 2.84281 381.195 3.13581 380.101C3.4288 379.008 2.78054 377.884 1.68789 377.591C0.595243 377.298 -0.528042 377.948 -0.821035 379.041C-1.11403 380.135 -0.46578 381.258 0.626871 381.551Z" fill="black"/>
</g>
<path d="M276.717 435.966L280.145 444.108L320.094 440.993C325.601 440.564 330.763 443.71 332.907 448.803L336.949 458.404L245.973 496.783L228.867 456.152L276.717 435.966Z" fill="#E68264"/>
<mask id="mask1_158_98" style="mask-type:luminance" maskUnits="userSpaceOnUse" x="228" y="435" width="109" height="62">
<path d="M276.717 435.966L280.145 444.108L320.094 440.993C325.601 440.564 330.763 443.71 332.907 448.803L336.949 458.404L245.973 496.783L228.867 456.152L276.717 435.966Z" fill="white"/>
</mask>
<g mask="url(#mask1_158_98)">
<path d="M335.853 450.876L234.265 487.062L234.795 488.551L336.382 452.365L335.853 450.876Z" fill="black"/>
<path d="M271.63 456.516L258.39 438.059L259.673 437.137L272.259 454.681L307.562 444.201L319.992 434.113L320.987 435.341L308.312 445.627L271.63 456.516Z" fill="black"/>
<path d="M296.14 441.546L290.309 455.871L291.772 456.467L297.603 442.142L296.14 441.546Z" fill="black"/>
<path d="M288.762 437.798L280.482 458.14L281.945 458.735L290.225 438.394L288.762 437.798Z" fill="black"/>
<path d="M285.068 432.949L267.813 460.38L269.15 461.221L286.405 433.791L285.068 432.949Z" fill="black"/>
<path d="M285.473 431.439L259.138 450.312L260.058 451.597L286.392 432.725L285.473 431.439Z" fill="black"/>
<path d="M260.375 451.937C261.468 452.23 262.591 451.581 262.884 450.487C263.177 449.394 262.529 448.27 261.436 447.977C260.344 447.684 259.22 448.333 258.927 449.427C258.635 450.52 259.283 451.644 260.375 451.937Z" fill="black"/>
<path d="M268.719 461.624C269.812 461.917 270.935 461.268 271.228 460.174C271.521 459.081 270.873 457.957 269.78 457.664C268.687 457.372 267.564 458.021 267.271 459.114C266.978 460.208 267.626 461.331 268.719 461.624Z" fill="black"/>
<path d="M281.239 459.125C282.331 459.418 283.455 458.769 283.748 457.676C284.041 456.582 283.392 455.458 282.3 455.166C281.207 454.873 280.084 455.522 279.791 456.615C279.498 457.709 280.146 458.833 281.239 459.125Z" fill="black"/>
<path d="M291.028 456.917C292.121 457.21 293.244 456.561 293.537 455.467C293.83 454.374 293.182 453.25 292.089 452.957C290.997 452.664 289.873 453.313 289.58 454.407C289.287 455.5 289.936 456.624 291.028 456.917Z" fill="black"/>
</g>
<path d="M72.9679 84.2695L50.1504 44.7144C48.3909 41.6642 49.0148 37.796 51.6441 35.4529L72.2545 17.0884C74.2387 15.3204 77.1594 14.9384 79.4431 16.2947C80.3243 16.818 81.0874 17.5684 81.6364 18.5195L91.2809 35.2387C87.3546 28.4323 96.9729 21.9173 101.736 28.1663C102.063 28.5957 102.367 29.0511 102.643 29.5312L118.906 57.7235L72.9681 84.2688L72.9679 84.2695Z" fill="#EC6EA6"/>
<mask id="mask2_158_98" style="mask-type:luminance" maskUnits="userSpaceOnUse" x="49" y="15" width="70" height="70">
<path d="M72.9679 84.2695L50.1504 44.7144C48.3909 41.6642 49.0148 37.796 51.6441 35.4529L72.2545 17.0884C74.2387 15.3204 77.1594 14.9384 79.4431 16.2947C80.3243 16.818 81.0874 17.5684 81.6364 18.5195L91.2809 35.2387C87.3546 28.4323 96.9729 21.9173 101.736 28.1663C102.063 28.5957 102.367 29.0511 102.643 29.5312L118.906 57.7235L72.9681 84.2688L72.9679 84.2695Z" fill="white"/>
</mask>
<g mask="url(#mask2_158_98)">
<path d="M82.1405 15.9826L80.7721 16.7733L99.536 49.3012L100.904 48.5105L82.1405 15.9826Z" fill="black"/>
<path d="M68.9395 16.5732L67.5712 17.3639L85.0761 47.7094L86.4445 46.9187L68.9395 16.5732Z" fill="black"/>
<path d="M60.3054 21.5626L58.937 22.3533L76.4419 52.6989L77.8103 51.9082L60.3054 21.5626Z" fill="black"/>
<path d="M51.6713 26.552L50.303 27.3427L67.8079 57.6882L69.1763 56.8975L51.6713 26.552Z" fill="black"/>
</g>
<path d="M348.97 159.755L388.509 136.908C391.557 135.146 392.951 131.484 391.846 128.14L383.179 101.931C382.345 99.4079 380.006 97.6168 377.35 97.6495C376.326 97.6621 375.29 97.9304 374.339 98.4796L357.627 108.137C364.43 104.205 359.358 93.754 352.109 96.7844C351.611 96.9926 351.12 97.2351 350.64 97.5125L322.46 113.796L348.971 159.754L348.97 159.755Z" fill="#EC6EA6"/>
<mask id="mask3_158_98" style="mask-type:luminance" maskUnits="userSpaceOnUse" x="322" y="96" width="71" height="64">
<path d="M348.97 159.755L388.509 136.908C391.557 135.146 392.951 131.484 391.846 128.14L383.179 101.931C382.345 99.4079 380.006 97.6168 377.35 97.6495C376.326 97.6621 375.29 97.9304 374.339 98.4796L357.627 108.137C364.43 104.205 359.358 93.754 352.109 96.7844C351.611 96.9926 351.12 97.2351 350.64 97.5125L322.46 113.796L348.971 159.754L348.97 159.755Z" fill="white"/>
</mask>
<g mask="url(#mask3_158_98)">
<path d="M375.171 96.0303L342.657 114.818L343.447 116.187L375.961 97.3992L375.171 96.0303Z" fill="black"/>
<path d="M386.307 103.143L355.975 120.67L356.764 122.039L387.097 104.512L386.307 103.143Z" fill="black"/>
</g>
<path d="M200.992 247.447L158.894 236.167L68.6289 86.1083L122.437 53.6861L197.095 177.798L323.758 107.67L354.146 162.653L200.992 247.447Z" fill="#E68264"/>
<path d="M216.717 104.568C224.92 106.766 233.354 101.893 235.553 93.6834C237.753 85.4738 232.886 77.0366 224.683 74.8385C216.479 72.6404 208.046 77.5137 205.846 85.7233C203.646 93.9329 208.513 102.37 216.717 104.568Z" fill="black"/>
<path d="M202.259 158.524C217.147 162.513 232.453 153.669 236.445 138.769C240.437 123.87 231.605 108.558 216.716 104.569C201.828 100.579 186.523 109.424 182.53 124.323C178.538 139.222 187.371 154.534 202.259 158.524Z" fill="#EC6EA6"/>
<path d="M202.259 158.524C217.147 162.513 232.453 153.669 236.445 138.769C240.437 123.87 231.605 108.558 216.716 104.569C201.828 100.579 186.523 109.424 182.53 124.323C178.538 139.222 187.371 154.534 202.259 158.524Z" fill="#EC6EA6"/>
<mask id="mask4_158_98" style="mask-type:luminance" maskUnits="userSpaceOnUse" x="181" y="103" width="57" height="57">
<path d="M202.259 158.524C217.147 162.513 232.453 153.669 236.445 138.769C240.437 123.87 231.605 108.558 216.716 104.569C201.828 100.579 186.523 109.424 182.53 124.323C178.538 139.222 187.371 154.534 202.259 158.524Z" fill="white"/>
</mask>
<g mask="url(#mask4_158_98)">
<path d="M187.58 125.675C203.86 130.038 220.597 120.366 224.963 104.074C229.329 87.7808 219.67 71.0365 203.389 66.6741C187.108 62.3117 170.371 71.9832 166.006 88.276C161.64 104.569 171.299 121.313 187.58 125.675Z" fill="black"/>
<path d="M231.396 137.416C247.677 141.778 264.414 132.107 268.779 115.814C273.145 99.5213 263.486 82.777 247.205 78.4147C230.925 74.0523 214.188 83.7238 209.822 100.017C205.456 116.309 215.115 133.054 231.396 137.416Z" fill="black"/>
</g>
<path d="M204.497 143.144C203.74 142.941 202.997 142.661 202.282 142.301C201.892 142.106 201.735 141.631 201.931 141.24C202.127 140.851 202.601 140.692 202.992 140.889C206.489 142.645 210.748 142.229 213.842 139.827C214.186 139.56 214.683 139.622 214.95 139.967C215.217 140.312 215.155 140.808 214.81 141.076C211.871 143.358 208.02 144.088 204.497 143.144Z" fill="black"/>
<path d="M219.786 130.896L214.22 129.404C213.798 129.291 213.548 128.858 213.661 128.436C213.774 128.015 214.208 127.764 214.629 127.877L220.195 129.369C220.616 129.481 220.866 129.915 220.753 130.336C220.64 130.758 220.207 131.008 219.786 130.896Z" fill="black"/>
<path d="M206.461 127.325L200.895 125.834C200.473 125.721 200.223 125.287 200.336 124.866C200.449 124.444 200.883 124.194 201.304 124.307L206.87 125.798C207.291 125.911 207.541 126.345 207.428 126.766C207.315 127.188 206.882 127.438 206.461 127.325Z" fill="black"/>
<path d="M202.056 132.633C201.108 132.379 200.545 131.403 200.799 130.455L201.108 129.301C201.363 128.352 202.337 127.789 203.285 128.043C204.233 128.297 204.796 129.272 204.542 130.221L204.233 131.375C203.978 132.323 203.004 132.887 202.056 132.633Z" fill="black"/>
<path d="M215.381 136.203C214.433 135.949 213.87 134.974 214.124 134.025L214.434 132.871C214.688 131.923 215.663 131.359 216.611 131.613C217.559 131.867 218.121 132.843 217.867 133.791L217.558 134.945C217.304 135.894 216.329 136.457 215.381 136.203Z" fill="black"/>
<path d="M28.5919 406.026L-8.85195 355.592L156.617 232.557L204.35 245.741L282.299 434.039L224.279 458.107L161.736 307.027L28.5919 406.026Z" fill="black"/>
</g>
<defs>
<clipPath id="clip0_158_98">
<rect width="420.105" height="422.015" fill="white" transform="translate(24.6953 0.59021) rotate(15)"/>
</clipPath>
</defs>
</svg>
