<svg width="360" height="293" viewBox="0 0 360 293" fill="none" xmlns="http://www.w3.org/2000/svg">
<path d="M16.4534 51.6118L13.3824 52.7863L110.346 306.303L113.417 305.129L16.4534 51.6118Z" fill="black"/>
<path d="M127.804 314.634L101.662 311.713L101.783 310.638C105.099 280.914 114.164 250.769 128.726 221.042L136.22 205.742C145.975 185.827 147.689 166.299 141.176 149.271C134.664 132.244 120.356 118.844 99.801 110.522L84.1293 104.176C53.3617 91.7189 26.4334 75.2637 4.09286 55.2673L3.30067 54.5582L20.8431 34.9595L21.6353 35.6685C41.7079 53.6352 66.0551 68.4823 94.0014 79.7967L109.673 86.142C136.776 97.1146 156.689 116.198 165.746 139.876C174.802 163.554 172.706 191.056 159.843 217.314L152.349 232.614C139.122 259.615 130.905 286.849 127.925 313.558L127.804 314.634Z" fill="#FADC00"/>
<path d="M180 143.5L250.5 115" stroke="#FADC00" stroke-width="3"/>
<path d="M231 78.5L277 60.5" stroke="#FADC00" stroke-width="3"/>
<path d="M395.469 35.836L244.535 93.5641L245.709 96.6351L396.643 38.907L395.469 35.836Z" fill="black"/>
<path d="M232.588 106.554L230.652 103.895L239.698 97.306L228.782 98.7819L228.341 95.5236L252.147 92.3052L232.588 106.554Z" fill="black"/>
<path d="M244.592 93.7139L228.584 99.8366L229.758 102.908L245.766 96.7849L244.592 93.7139Z" fill="black"/>
</svg>
