<svg width="360" height="389" viewBox="0 0 360 389" fill="none" xmlns="http://www.w3.org/2000/svg">
<g clip-path="url(#clip0_187_54)">
<path d="M238.866 184.148L237.64 185.945L390.122 290.005L391.348 288.208L238.866 184.148Z" fill="black"/>
<path d="M365.698 160.272L261.667 312.774L263.464 314L367.495 161.498L365.698 160.272Z" fill="black"/>
<path d="M397.238 196.132L230.904 276.173L231.847 278.133L398.181 198.092L397.238 196.132Z" fill="black"/>
<path d="M275.599 153.429L273.639 154.373L353.677 320.743L355.637 319.8L275.599 153.429Z" fill="black"/>
<path d="M222.59 229.114L222.427 231.284L406.496 245.151L406.659 242.982L222.59 229.114Z" fill="black"/>
<path d="M320.279 144.993L306.427 329.094L308.596 329.258L322.448 145.156L320.279 144.993Z" fill="black"/>
<path d="M-86.3123 245.557L-87.5382 247.354L64.944 351.414L66.1699 349.617L-86.3123 245.557Z" fill="black"/>
<path d="M40.5202 221.681L-63.5103 374.184L-61.7135 375.41L42.317 222.908L40.5202 221.681Z" fill="black"/>
<path d="M72.0606 257.542L-94.2737 337.583L-93.3305 339.544L73.0037 259.503L72.0606 257.542Z" fill="black"/>
<path d="M-49.579 214.84L-51.5391 215.783L28.4992 382.153L30.4592 381.21L-49.579 214.84Z" fill="black"/>
<path d="M-102.588 290.524L-102.751 292.693L81.3177 306.561L81.4809 304.392L-102.588 290.524Z" fill="black"/>
<path d="M6.90637 391.429C-44.3164 401.103 -93.8605 367.291 -103.536 316.059C-113.211 264.827 -79.4098 215.276 -28.1869 205.602C23.0359 195.929 72.5798 229.74 82.2551 280.972C91.9304 332.205 58.1292 381.756 6.90637 391.429ZM-24.9572 222.704C-66.7516 230.597 -94.3312 271.027 -86.4368 312.83C-78.5424 354.632 -38.1178 382.22 3.67663 374.327C45.471 366.434 73.0506 326.004 65.1563 284.202C57.2619 242.399 16.8372 214.812 -24.9572 222.704Z" fill="#49B170"/>
<path d="M332.084 330.02C280.862 339.693 231.318 305.882 221.642 254.649C211.967 203.416 245.768 153.866 296.991 144.193C348.214 134.519 397.758 168.33 407.433 219.563C417.108 270.796 383.307 320.346 332.084 330.02ZM300.221 161.295C258.426 169.188 230.847 209.618 238.741 251.42C246.635 293.223 287.06 320.81 328.855 312.917C370.649 305.025 398.229 264.595 390.334 222.792C382.44 180.989 342.015 153.402 300.221 161.295Z" fill="#49B170"/>
<path d="M241.564 115.259C243.397 110.862 242.89 105.838 240.215 101.897L215.524 65.5266L237.95 49.4699C242.013 46.5605 241.391 40.3403 236.833 38.2918L216.793 29.2844C213.896 27.9827 210.486 29.1304 208.966 31.9193C207.32 34.9407 208.507 38.7256 211.584 40.265L227.638 48.2961L203.929 65.1549L212.836 78.4162C210.66 80.072 209.939 83.0244 211.106 85.4973L214.011 91.6495L71.4298 169.529L45.3487 118.971L50.7977 102.548L45.5631 103.629L41.2283 115.555L25.485 103.337L17.4231 111.6L39.3027 129.256L63.7322 177.111L-21.0559 287.681L-13.1717 302.614L129.521 292.604L224.369 112.016L233.323 128.389L237.246 129.992C242.493 132.135 246.928 135.884 249.915 140.703L307.135 233.005L315.644 227.139L241.564 115.259L241.564 115.259ZM-12.5274 288.526L67.9337 186.125L118.058 279.818L-12.5274 288.526ZM126.276 272.659L76.9335 177.477L217.622 100.427L126.275 272.659L126.276 272.659Z" fill="#49B170"/>
<path d="M131.453 316.079C147.838 312.984 158.611 297.191 155.517 280.803C152.422 264.415 136.63 253.639 120.246 256.733C103.861 259.827 93.0876 275.62 96.1824 292.008C99.2773 308.396 115.069 319.173 131.453 316.079Z" fill="#49B170"/>
<path d="M129.944 308.086C117.992 310.344 106.431 302.454 104.174 290.499C101.916 278.544 109.803 266.982 121.756 264.725C133.708 262.468 145.269 270.357 147.527 282.312C149.784 294.267 141.897 305.829 129.944 308.086ZM122.159 266.862C111.385 268.897 104.276 279.319 106.311 290.095C108.346 300.871 118.767 307.983 129.541 305.948C140.314 303.913 147.424 293.491 145.389 282.715C143.354 271.939 132.933 264.827 122.159 266.862Z" fill="black"/>
<path d="M127.5 295.144C132.325 294.233 135.498 289.582 134.586 284.756C133.675 279.93 129.024 276.756 124.199 277.667C119.374 278.578 116.201 283.229 117.112 288.056C118.024 292.882 122.674 296.056 127.5 295.144Z" fill="black"/>
<path d="M121.86 283.946L121.184 291.046L164.526 315.119L160.249 315.927C157.952 316.361 156.442 318.575 156.876 320.873L156.929 321.154C157.363 323.451 159.577 324.962 161.874 324.528L184.488 320.258C186.786 319.824 188.296 317.609 187.862 315.312C187.428 313.014 185.214 311.503 182.917 311.937L175.265 313.382L121.86 283.945L121.86 283.946Z" fill="black"/>
<path d="M67.2223 102.8L31.178 109.607C28.6393 110.086 26.3948 111.554 24.9385 113.689C23.0762 116.419 20.2061 118.297 16.9595 118.91L13.0048 119.657C4.81341 121.204 -3.6571 119.433 -10.5434 114.733C-12.4435 113.436 -13.7506 111.438 -14.1774 109.178C-15.1512 104.021 -11.359 99.188 -6.1192 98.908L32.4131 96.8502L64.9388 90.7078C68.2774 90.0773 71.4945 92.2732 72.125 95.6119C72.7556 98.9511 70.5604 102.169 67.2223 102.8Z" fill="black"/>
<path d="M317.327 251.876C325.483 250.336 330.846 242.475 329.305 234.317C327.765 226.16 319.904 220.795 311.748 222.336C303.592 223.876 298.23 231.737 299.77 239.895C301.311 248.052 309.171 253.417 317.327 251.876Z" fill="#49B170"/>
<path d="M-7.85145 313.286C0.304429 311.746 5.66722 303.884 4.12669 295.727C2.58616 287.57 -5.27434 282.205 -13.4302 283.745C-21.5861 285.286 -26.9489 293.147 -25.4084 301.305C-23.8678 309.462 -16.0073 314.826 -7.85145 313.286Z" fill="#49B170"/>
</g>
<defs>
<clipPath id="clip0_187_54">
<rect width="520" height="318" fill="white" transform="translate(-145 96.496) rotate(-10.6943)"/>
</clipPath>
</defs>
</svg>
