<?xml version="1.0" encoding="UTF-8" standalone="no"?>
<svg
   width="331"
   height="400"
   viewBox="0 0 331 400"
   fill="none"
   version="1.1"
   id="svg803"
   sodipodi:docname="green-bike.svg"
   inkscape:version="1.1.2 (0a00cf5339, 2022-02-04)"
   xmlns:inkscape="http://www.inkscape.org/namespaces/inkscape"
   xmlns:sodipodi="http://sodipodi.sourceforge.net/DTD/sodipodi-0.dtd"
   xmlns="http://www.w3.org/2000/svg"
   xmlns:svg="http://www.w3.org/2000/svg">
  <sodipodi:namedview
     id="namedview805"
     pagecolor="#ffffff"
     bordercolor="#666666"
     borderopacity="1.0"
     inkscape:pageshadow="2"
     inkscape:pageopacity="0.0"
     inkscape:pagecheckerboard="0"
     showgrid="false"
     inkscape:zoom="0.67524812"
     inkscape:cx="-76.268261"
     inkscape:cy="173.26964"
     inkscape:window-width="1916"
     inkscape:window-height="1053"
     inkscape:window-x="0"
     inkscape:window-y="0"
     inkscape:window-maximized="1"
     inkscape:current-layer="svg803" />
  <g
     clip-path="url(#clip0_384_368)"
     id="g794"
     transform="translate(0,-130)">
    <path
       d="m 120.72,279.604 -0.389,2.409 204.406,33.047 0.389,-2.409 z"
       fill="#000000"
       id="path764" />
    <path
       d="m 238.145,194.95 -33.007,204.412 2.408,0.39 33.007,-204.413 z"
       fill="#000000"
       id="path766" />
    <path
       d="m 287.253,216.343 -130.788,160.503 1.892,1.542 130.788,-160.503 z"
       fill="#000000"
       id="path768" />
    <path
       d="m 143.391,230.915 -1.541,1.891 160.517,130.826 1.542,-1.892 z"
       fill="#000000"
       id="path770" />
    <path
       d="m 125.61,333.019 0.867,2.281 193.524,-73.587 -0.867,-2.281 z"
       fill="#000000"
       id="path772" />
    <path
       d="m 184.745,201.067 73.618,193.55 2.281,-0.867 -73.619,-193.55 z"
       fill="#000000"
       id="path774" />
    <path
       d="m -157.573,448.153 -1.541,1.892 160.51708,130.825 1.54116,-1.891 z"
       fill="#000000"
       id="path776" />
    <path
       d="M -16.1059,600.574 C -63.5147,634.794 -129.93,624.056 -164.156,576.639 -198.382,529.221 -187.658,462.804 -140.249,428.584 -92.8406,394.364 -26.4259,405.102 7.80068,452.52 42.0272,499.938 31.3028,566.354 -16.1059,600.574 Z M -128.824,444.413 c -38.682,27.921 -47.433,82.113 -19.506,120.803 27.926,38.69 82.1164,47.451 120.7988,19.53 C 11.1512,556.824 19.9016,502.632 -8.02497,463.943 -35.9515,425.253 -90.1417,416.492 -128.824,444.413 Z"
       fill="#49b170"
       id="path778" />
    <path
       d="m 284.859,383.336 c -47.408,34.22 -113.824,23.483 -148.05,-23.935 -34.227,-47.418 -23.502,-113.835 23.907,-148.055 47.408,-34.22 113.823,-23.482 148.05,23.936 34.226,47.418 23.502,113.834 -23.907,148.054 z M 172.141,227.175 c -38.683,27.921 -47.433,82.113 -19.506,120.803 27.926,38.69 82.116,47.451 120.799,19.53 38.682,-27.922 47.432,-82.114 19.506,-120.803 -27.927,-38.69 -82.117,-47.451 -120.799,-19.53 z"
       fill="#49b170"
       id="path780" />
    <path
       d="m 90.6496,208.363 c -0.2322,-5.337 -3.1401,-10.198 -7.7342,-12.925 L 40.52,170.263 55.6447,143.277 c 2.7404,-4.889 -0.8532,-10.91 -6.4572,-10.819 l -24.641,0.398 c -3.5614,0.057 -6.4778,2.847 -6.6928,6.403 -0.2328,3.852 2.7751,7.131 6.633,7.228 l 20.1275,0.51 -16.0466,28.412 15.3614,9.224 c -1.4211,2.718 -0.7474,6.06 1.6161,8.015 l 5.8797,4.864 -107.6959,146.994 -50.5649,-38.919 -2.289,-19.272 -4.801,3.59 1.279,14.176 -21.807,-4.909 -4.251,12.231 30.628,7.508 47.6001,36.961 -33.438,152.666 15.1187,11.409 140.1341,-78.128 10.3062,-228.559 16.8906,12.362 4.7467,-0.241 c 6.3497,-0.323 12.6386,1.372 17.9676,4.842 l 102.068,66.479 5.847,-10.009 -128.5145,-78.329 z m -175.5015,296.971 32.9348,-142.31 95.5246,71.271 z M 48.5433,423.111 -46.8968,349.956 59.2727,204.706 48.5425,423.111 Z"
       fill="#49b170"
       id="path782" />
    <path
       d="m 74.4811,464.737 c 15.1647,-10.946 18.5829,-32.115 7.6348,-47.283 -10.948,-15.167 -32.1165,-18.59 -47.2812,-7.644 -15.1646,10.946 -18.5828,32.115 -7.6348,47.283 10.9481,15.168 32.1166,18.59 47.2812,7.644 z"
       fill="#49b170"
       id="path784" />
    <path
       d="m 69.1423,457.34 c -11.0626,7.985 -26.5598,5.479 -34.5464,-5.586 -7.9867,-11.064 -5.4842,-26.562 5.5784,-34.547 11.0626,-7.985 26.5599,-5.48 34.5465,5.585 7.9866,11.065 5.4842,26.563 -5.5785,34.548 z M 41.6021,419.185 c -9.9717,7.198 -12.2274,21.167 -5.0284,31.141 7.199,9.974 21.1685,12.232 31.1401,5.035 9.9717,-7.198 12.2274,-21.168 5.0284,-31.142 -7.199,-9.973 -21.1685,-12.232 -31.1401,-5.034 z"
       fill="#000000"
       id="path786" />
    <path
       d="m 60.4958,445.362 c 4.466,-3.224 5.4727,-9.458 2.2485,-13.925 -3.2242,-4.467 -9.4584,-5.475 -13.9244,-2.251 -4.466,3.223 -5.4726,9.458 -2.2484,13.924 3.2242,4.467 9.4583,5.475 13.9243,2.252 z"
       fill="#000000"
       id="path788" />
    <path
       d="m 49.4349,436.676 2.6952,7.531 55.4789,3.804 -3.958,2.857 c -2.126,1.534 -2.605,4.502 -1.071,6.629 l 0.188,0.26 c 1.535,2.127 4.503,2.606 6.629,1.072 l 20.931,-15.108 c 2.126,-1.535 2.605,-4.503 1.07,-6.629 -1.535,-2.127 -4.502,-2.607 -6.628,-1.072 l -7.082,5.112 -68.2529,-4.457 z"
       fill="#000000"
       id="path790" />
    <path
       d="m 232.655,311.012 c 7.548,-5.449 9.25,-15.986 3.8,-23.536 -5.449,-7.55 -15.987,-9.254 -23.535,-3.805 -7.549,5.448 -9.25,15.986 -3.801,23.536 5.45,7.55 15.987,9.253 23.536,3.805 z"
       fill="#49b170"
       id="path792" />
  </g>
  <path
     d="m 236.811,315.356 c -24.383,3.073 -81.726,-2.37 -116.03,-48.734 m 47.11,19.2 c -12.933,-5.512 -42.077,-24.811 -55.187,-57.911"
     stroke="#49b170"
     stroke-width="3"
     id="path796" />
  <defs
     id="defs801">
    <clipPath
       id="clip0_384_368">
      <rect
         width="583.24902"
         height="356.67899"
         fill="#ffffff"
         transform="rotate(-35.8219,422.27702,667.5832)"
         id="rect798"
         x="0"
         y="0" />
    </clipPath>
  </defs>
</svg>
