<?xml version="1.0" encoding="UTF-8" standalone="no"?>
<svg
   width="170"
   height="248"
   viewBox="0 0 170 248"
   fill="none"
   version="1.1"
   id="svg611"
   sodipodi:docname="blue-ice-skate.svg"
   inkscape:version="1.1.2 (0a00cf5339, 2022-02-04)"
   xmlns:inkscape="http://www.inkscape.org/namespaces/inkscape"
   xmlns:sodipodi="http://sodipodi.sourceforge.net/DTD/sodipodi-0.dtd"
   xmlns="http://www.w3.org/2000/svg"
   xmlns:svg="http://www.w3.org/2000/svg">
  <sodipodi:namedview
     id="namedview613"
     pagecolor="#ffffff"
     bordercolor="#666666"
     borderopacity="1.0"
     inkscape:pageshadow="2"
     inkscape:pageopacity="0.0"
     inkscape:pagecheckerboard="0"
     showgrid="false"
     width="228px"
     inkscape:zoom="1.4728814"
     inkscape:cx="-60.765247"
     inkscape:cy="131.03567"
     inkscape:window-width="1916"
     inkscape:window-height="1053"
     inkscape:window-x="0"
     inkscape:window-y="0"
     inkscape:window-maximized="1"
     inkscape:current-layer="svg611" />
  <g
     clip-path="url(#clip0_378_227)"
     id="g602"
     transform="translate(0,-26)">
    <path
       d="m 2.50364,169.596 c -0.30448,-0.673 -0.55092,-1.375 -0.73602,-2.1 -0.884683,-3.477 -0.24953,-7.185 1.74079,-10.17 l 10.15989,-15.234 143.5387,75.651 5.074,21.639 c 0.839,3.576 -0.445,7.195 -3.351,9.442 -2.906,2.247 -6.73,2.581 -9.981,0.869 L 8.15646,175.598 C 5.64242,174.275 3.65955,172.149 2.50364,169.596 Z M 14.5464,145.549 5.71307,158.795 c -1.57603,2.363 -2.07823,5.296 -1.37805,8.049 0.70079,2.752 2.54278,5.088 5.05533,6.411 L 150.182,247.35 c 2.322,1.222 5.053,0.984 7.128,-0.621 2.076,-1.605 2.993,-4.189 2.394,-6.743 l -4.799,-20.463 z"
       fill="#000000"
       id="path555" />
    <path
       d="m 22.225,164.444 c -0.2471,-0.546 -0.4471,-1.115 -0.5966,-1.704 -0.7179,-2.822 -0.2025,-5.829 1.4119,-8.251 l 8.1592,-12.234 113.6345,59.891 4.035,17.204 c 0.688,2.931 -0.365,5.896 -2.746,7.738 -2.381,1.842 -5.515,2.115 -8.179,0.713 L 26.812,169.315 c -2.0398,-1.074 -3.6487,-2.799 -4.5864,-4.87 z m 9.8524,-18.732 -6.8327,10.246 c -1.1996,1.799 -1.5823,4.033 -1.0498,6.129 0.5335,2.095 1.9368,3.875 3.8501,4.883 l 111.132,58.486 c 1.734,0.913 3.775,0.735 5.326,-0.464 1.55,-1.2 2.235,-3.13 1.788,-5.038 l -3.759,-16.028 z"
       fill="#000000"
       id="path557" />
    <path
       d="m 148.835,67.1947 -32.399,66.4483 46.494,48.481 c 6.409,6.683 7.821,16.719 3.503,24.911 L 158.295,222.477 11.8931,145.317 71.8334,26.612 Z"
       fill="#5bc5f2"
       id="path559" />
    <mask
       id="mask0_378_227"
       maskUnits="userSpaceOnUse"
       x="11"
       y="26"
       width="158"
       height="197">
      <path
         d="m 148.835,67.1947 -32.399,66.4483 46.494,48.481 c 6.409,6.683 7.821,16.719 3.503,24.911 L 158.295,222.477 11.8931,145.317 71.8334,26.612 Z"
         fill="#ffffff"
         id="path561" />
    </mask>
    <g
       mask="url(#mask0_378_227)"
       id="g596">
      <path
         d="M 166.883,213.056 12.0443,119.808 10.678,122.077 165.517,215.324 Z"
         fill="#000000"
         id="path564" />
      <path
         d="m 91.2674,135.757 28.5976,-86.4409 2.515,0.8319 -27.9694,84.54 51.0464,34.597 26.275,5.396 -0.532,2.594 -26.793,-5.502 z"
         fill="#000000"
         id="path566" />
      <path
         d="m 136.756,151.654 -24.75,7.663 0.783,2.53 24.751,-7.663 z"
         fill="#000000"
         id="path568" />
      <path
         d="m 133.77,138.106 -35.1467,10.882 0.7833,2.53 35.1464,-10.882 z"
         fill="#000000"
         id="path570" />
      <path
         d="m 136.122,128.167 -53.8665,6.78 0.3307,2.628 53.8668,-6.78 z"
         fill="#000000"
         id="path572" />
      <path
         d="M 138.51,127.086 86.0774,113 l -0.6873,2.558 52.4329,14.086 z"
         fill="#000000"
         id="path574" />
      <path
         d="M 149.545,113.484 97.1128,99.3985 96.4256,101.956 148.858,116.042 Z"
         fill="#000000"
         id="path576" />
      <path
         d="m 155.456,97.7954 -52.433,-14.0858 -0.687,2.5578 52.432,14.0856 z"
         fill="#000000"
         id="path578" />
      <path
         d="m 161.376,82.0802 -52.432,-14.0858 -0.688,2.5578 52.433,14.0858 z"
         fill="#000000"
         id="path580" />
      <path
         d="m 85.2847,116.333 c 0.7821,1.727 2.8167,2.494 4.5443,1.712 1.7276,-0.782 2.4941,-2.817 1.712,-4.544 -0.7821,-1.728 -2.8167,-2.495 -4.5443,-1.712 -1.7276,0.782 -2.4941,2.816 -1.712,4.544 z"
         fill="#000000"
         id="path582" />
      <path
         d="m 91.8304,101.716 c 0.7821,1.728 2.8166,2.495 4.5443,1.712 1.7276,-0.782 2.4941,-2.816 1.712,-4.5438 -0.7821,-1.7277 -2.8167,-2.4942 -4.5443,-1.712 -1.7277,0.7821 -2.4942,2.8166 -1.712,4.5438 z"
         fill="#000000"
         id="path584" />
      <path
         d="m 96.7255,85.6022 c 0.7821,1.7277 2.8167,2.4942 4.5445,1.7121 1.727,-0.7822 2.494,-2.8167 1.712,-4.5444 -0.782,-1.7276 -2.817,-2.4941 -4.5445,-1.712 -1.7276,0.7821 -2.4941,2.8167 -1.712,4.5443 z"
         fill="#000000"
         id="path586" />
      <path
         d="m 102.821,69.6395 c 0.782,1.7276 2.817,2.4941 4.544,1.712 1.728,-0.7821 2.494,-2.8167 1.712,-4.5443 -0.782,-1.7277 -2.817,-2.4941 -4.544,-1.712 -1.728,0.7821 -2.494,2.8166 -1.712,4.5443 z"
         fill="#000000"
         id="path588" />
      <path
         d="m 81.6059,137.444 c 0.7821,1.728 2.8166,2.494 4.5443,1.712 1.7276,-0.782 2.4941,-2.816 1.712,-4.544 -0.7821,-1.728 -2.8167,-2.494 -4.5443,-1.712 -1.7277,0.782 -2.4942,2.817 -1.712,4.544 z"
         fill="#000000"
         id="path590" />
      <path
         d="m 98.1487,151.02 c 0.7821,1.727 2.8163,2.494 4.5443,1.712 1.728,-0.782 2.494,-2.817 1.712,-4.545 -0.782,-1.727 -2.817,-2.494 -4.5443,-1.712 -1.7276,0.782 -2.4941,2.817 -1.712,4.545 z"
         fill="#000000"
         id="path592" />
      <path
         d="m 111.414,161.364 c 0.782,1.727 2.816,2.494 4.544,1.712 1.728,-0.783 2.494,-2.817 1.712,-4.545 -0.782,-1.727 -2.817,-2.494 -4.544,-1.712 -1.728,0.782 -2.494,2.817 -1.712,4.545 z"
         fill="#000000"
         id="path594" />
    </g>
    <path
       d="m 131.179,75.3549 18.839,-8.9233 c 3.326,-1.5753 7.073,-1.0056 9.78,1.4881 2.707,2.4929 3.582,6.1815 2.285,9.6253 -1.72,4.5644 -6.833,6.879 -11.397,5.1591 z m 28.308,-3.4316 c -0.373,-0.8257 -0.907,-1.5255 -1.483,-2.0559 -1.487,-1.3689 -4.067,-2.3616 -6.852,-1.0427 l -13.198,6.2519 13.666,5.1486 c 3.198,1.2046 6.78,-0.4169 7.985,-3.6147 0.665,-1.7657 0.473,-3.3837 -0.118,-4.6872 z"
       fill="#000000"
       id="path598" />
    <path
       d="m 118.403,60.9978 c -0.926,-2.0454 -1.025,-4.393 -0.201,-6.6456 1.265,-3.456 4.334,-5.6786 8.013,-5.8014 2.361,-0.0784 4.612,0.767 6.338,2.3813 1.725,1.6145 2.718,3.8039 2.797,6.1652 l 0.694,20.834 -15.466,-13.9767 c -0.95,-0.8584 -1.68,-1.865 -2.175,-2.9568 z m 13.755,-6.1635 c -0.332,-0.7334 -0.809,-1.4014 -1.415,-1.9679 -1.209,-1.1309 -2.786,-1.7234 -4.441,-1.6683 -3.08,0.1022 -4.919,2.1667 -5.614,4.0643 -0.694,1.897 -0.621,4.661 1.665,6.7272 l 10.835,9.792 -0.486,-14.5962 c -0.027,-0.8257 -0.214,-1.6206 -0.544,-2.3511 z"
       fill="#000000"
       id="path600" />
  </g>
  <path
     d="M 168.316,246.454 27.3682,175.206 m 43.5072,41.006 -92.7851,-47.603"
     stroke="#5bc5f2"
     stroke-width="3"
     id="path604" />
  <defs
     id="defs609">
    <clipPath
       id="clip0_378_227">
      <rect
         width="238.614"
         height="185.95599"
         fill="#ffffff"
         transform="rotate(65.6433,64.766674,100.90515)"
         id="rect606"
         x="0"
         y="0" />
    </clipPath>
  </defs>
</svg>
