<svg width="202" height="288" viewBox="0 0 202 288" fill="none" xmlns="http://www.w3.org/2000/svg">
<path d="M13.4356 206.533L156.095 147.115L154.886 144.212L12.2266 203.63L13.4356 206.533Z" fill="black"/>
<path d="M167.15 134.363L169.076 136.849L160.613 143.402L171.006 141.685L171.519 144.787L148.854 148.532L167.15 134.363Z" fill="black"/>
<path d="M156.036 146.973L171.167 140.671L169.958 137.769L154.827 144.071L156.036 146.973Z" fill="black"/>
<path d="M21.7789 195.239L23.7045 197.726L15.242 204.279L25.6354 202.562L26.1476 205.665L3.4822 209.408L21.7789 195.239Z" fill="black"/>
<path d="M151.115 92.4999C141.573 121.226 133.944 142.792 150.862 157.569M155.826 117.472C151.56 126.646 148.095 147.521 168.36 157.638" stroke="#5BC5F2" stroke-width="3"/>
<path d="M253.087 231.021L255.673 229.657L143.113 16.2062L140.527 17.5697L253.087 231.021Z" fill="black"/>
<path d="M126.816 10.7104L150.2 10.5072L150.209 11.4694C150.444 38.0586 145.651 65.6307 135.961 93.4189L130.974 107.721C124.482 126.337 125.047 143.755 132.608 158.092C140.168 172.429 154.222 182.734 173.251 187.892L187.759 191.825C216.242 199.546 241.76 211.205 263.607 226.478L264.382 227.02L250.984 246.186L250.21 245.644C230.581 231.922 207.511 221.407 181.64 214.394L167.132 210.461C142.042 203.66 122.435 188.935 111.922 168.999C101.409 149.063 100.333 124.565 108.892 100.02L113.879 85.7177C122.681 60.4776 127.036 35.5654 126.824 11.6736L126.816 10.7104Z" fill="#5BC5F2"/>
</svg>
