<?xml version="1.0" encoding="UTF-8" standalone="no"?>
<svg
   width="162"
   height="236"
   viewBox="0 0 162 236"
   fill="none"
   version="1.1"
   id="svg270"
   sodipodi:docname="blue-whistle.svg"
   inkscape:version="1.1.2 (0a00cf5339, 2022-02-04)"
   xmlns:inkscape="http://www.inkscape.org/namespaces/inkscape"
   xmlns:sodipodi="http://sodipodi.sourceforge.net/DTD/sodipodi-0.dtd"
   xmlns="http://www.w3.org/2000/svg"
   xmlns:svg="http://www.w3.org/2000/svg">
  <sodipodi:namedview
     id="namedview272"
     pagecolor="#ffffff"
     bordercolor="#666666"
     borderopacity="1.0"
     inkscape:pageshadow="2"
     inkscape:pageopacity="0.0"
     inkscape:pagecheckerboard="0"
     showgrid="false"
     width="203px"
     inkscape:zoom="1.5742754"
     inkscape:cx="-67.650173"
     inkscape:cy="107.35098"
     inkscape:window-width="1916"
     inkscape:window-height="1053"
     inkscape:window-x="0"
     inkscape:window-y="0"
     inkscape:window-maximized="1"
     inkscape:current-layer="svg270" />
  <g
     clip-path="url(#clip0_378_224)"
     id="g261"
     transform="translate(0,-34)">
    <path
       d="m 101.183,147.456 c -10.8638,-14.504 -31.3719,-17.497 -45.8101,-6.682 -0.6473,0.485 -1.2627,0.995 -1.8633,1.517 l -15.8509,-9.865 -11.1154,17.982 16.3964,10.205 c -1.7122,8.787 0.1621,18.253 5.9668,26.003 10.8606,14.498 31.3686,17.492 45.8068,6.677 l 13.9927,18.68 35.339,-7.297 -42.861,-57.219 z m -69.4833,1.077 6.4802,-10.638 6.33,3.883 -6.4803,10.638 z"
       fill="#5bc5f2"
       id="path226" />
    <mask
       id="mask0_378_224"
       maskUnits="userSpaceOnUse"
       x="26"
       y="132"
       width="119"
       height="80">
      <path
         d="m 101.183,147.456 c -10.8638,-14.504 -31.3719,-17.497 -45.8101,-6.682 -0.6473,0.485 -1.2627,0.995 -1.8633,1.517 l -15.8509,-9.865 -11.1154,17.982 16.3964,10.205 c -1.7122,8.787 0.1621,18.253 5.9668,26.003 10.8606,14.498 31.3686,17.492 45.8068,6.677 l 13.9927,18.68 35.339,-7.297 -42.861,-57.219 z m -69.4833,1.077 6.4802,-10.638 6.33,3.883 -6.4803,10.638 z"
         fill="#ffffff"
         id="path228" />
    </mask>
    <g
       mask="url(#mask0_378_224)"
       id="g239">
      <path
         d="m 106.492,225.919 -3.895,-20.144 39.114,-7.418 24.612,16.75 z m -1.096,-18.24 2.99,15.467 51.765,-9.354 -18.956,-12.902 z"
         fill="#000000"
         id="path231" />
      <path
         d="m 131.64,200.624 -16.661,-22.243 -1.908,1.43 16.661,22.242 z"
         fill="#000000"
         id="path233" />
      <path
         d="m 54.7478,175.902 c -4.8151,-6.428 -6.186,-15.173 -2.8327,-23.052 4.9969,-11.741 18.6198,-17.183 30.3679,-12.128 5.6917,2.448 10.0995,6.963 12.4121,12.718 2.3123,5.753 2.2529,12.054 -0.167,17.742 -2.42,5.688 -6.912,10.082 -12.6478,12.372 -5.7358,2.291 -12.0288,2.204 -17.7201,-0.244 -3.8645,-1.662 -7.0522,-4.257 -9.4124,-7.408 z m 35.0535,-26.348 c -2.1635,-2.888 -5.0527,-5.174 -8.4523,-6.637 -10.5369,-4.533 -22.7553,0.347 -27.2366,10.878 -2.1708,5.101 -2.2243,10.753 -0.1494,15.912 2.0738,5.16 6.028,9.211 11.1317,11.407 5.1042,2.196 10.7484,2.273 15.893,0.218 5.1441,-2.054 9.1725,-5.995 11.3433,-11.097 2.1708,-5.101 2.2246,-10.752 0.1497,-15.911 -0.6926,-1.723 -1.5951,-3.323 -2.6797,-4.771 z"
         fill="#000000"
         id="path235" />
      <path
         d="M 47.1102,188.248 C 35.4345,172.66 38.5591,150.523 54.0763,138.9 c 15.5172,-11.624 37.6399,-8.399 49.3157,7.189 11.676,15.587 8.551,37.724 -6.9658,49.348 -15.5172,11.623 -37.6399,8.398 -49.316,-7.189 z m 54.3738,-40.73 C 90.6,132.987 69.9769,129.981 55.5119,140.816 c -14.4649,10.835 -17.378,31.472 -6.4937,46.002 10.8842,14.531 31.5074,17.537 45.9723,6.702 14.4645,-10.835 17.3785,-31.472 6.4935,-46.002 z"
         fill="#000000"
         id="path237" />
    </g>
    <path
       d="M 11.4038,143.398 -42.9918,70.7795 c -4.2968,-5.7363 -3.1464,-13.8827 2.5635,-18.1598 l 16.5747,-12.4155 c 13.0678,-9.7887 31.69904,-7.0726 41.5324,6.0549 l 14.7433,19.6823 c 5.7903,7.7301 9.0675,16.9095 9.477,26.5458 l 1.6803,39.5168 c 0.2508,5.895 -2.4107,11.52 -7.119,15.047 -7.884,5.906 -19.1243,4.267 -25.0567,-3.653 z M 15.7709,47.6883 C 6.72962,35.6182 -10.4023,33.1203 -22.4185,42.1211 l -16.5746,12.4155 c -4.6582,3.4893 -5.5963,10.1348 -2.0912,14.8141 l 54.3952,72.6173 c 5.1407,6.863 14.8813,8.283 21.7132,3.166 4.0796,-3.056 6.3856,-7.931 6.1692,-13.039 L 39.513,92.5781 C 39.1237,83.4271 36.0119,74.711 30.5134,67.3705 L 15.7701,47.6882 Z"
       fill="#000000"
       id="path241" />
    <mask
       id="mask1_378_224"
       maskUnits="userSpaceOnUse"
       x="36"
       y="129"
       width="13"
       height="13">
      <path
         d="m 48.9481,132.96 c -2.4118,-4.16 -8.3332,-5.304 -11.3389,-1.389 -2.3405,3.048 -1.2562,7.215 1.6376,9.511 2.29,1.817 4.642,0.031 7.0829,-1.521 2.6171,-1.663 2.7055,-4.728 2.6184,-6.601 0.087,1.874 -2.4118,-4.16 0,0 z"
         fill="#ffffff"
         id="path243" />
    </mask>
    <g
       mask="url(#mask1_378_224)"
       id="g259">
      <path
         d="M 11.4037,143.398 -42.9919,70.7796 c -4.2968,-5.7363 -3.1465,-13.8827 2.5635,-18.1599 l 16.5746,-12.4154 c 13.0679,-9.7887 31.69912,-7.0727 41.5325,6.0549 L 32.422,65.9415 c 5.7903,7.73 9.0675,16.9094 9.477,26.5457 l 1.6803,39.5168 c 0.2508,5.895 -2.4107,11.52 -7.119,15.047 -7.884,5.906 -19.1243,4.267 -25.0567,-3.652 z M 15.7708,47.6884 C 6.7295,35.6182 -10.4025,33.1204 -22.4186,42.1212 l -16.5747,12.4155 c -4.6582,3.4893 -5.5962,10.1347 -2.0911,14.8141 l 54.3952,72.6172 c 5.1407,6.863 14.8813,8.283 21.7131,3.166 4.0797,-3.056 6.3857,-7.931 6.1692,-13.039 L 39.5128,92.5782 C 39.1236,83.4271 36.0117,74.711 30.5132,67.3705 L 15.77,47.6882 Z"
         fill="#000000"
         id="path246" />
      <path
         d="m 101.183,147.456 c -10.864,-14.504 -31.372,-17.497 -45.8102,-6.682 -0.6473,0.485 -1.2628,0.995 -1.8633,1.517 l -15.8509,-9.865 -11.1154,17.982 16.3964,10.205 c -1.7122,8.787 0.1621,18.253 5.9667,26.003 10.8606,14.498 31.3686,17.492 45.8069,6.677 l 13.9928,18.68 35.339,-7.297 -42.861,-57.219 z m -69.4835,1.077 6.4803,-10.638 6.33,3.883 -6.4803,10.638 z"
         fill="#5bc5f2"
         id="path248" />
      <mask
         id="mask2_378_224"
         maskUnits="userSpaceOnUse"
         x="26"
         y="132"
         width="119"
         height="80">
        <path
           d="m 101.183,147.456 c -10.864,-14.504 -31.372,-17.497 -45.8102,-6.682 -0.6473,0.485 -1.2628,0.995 -1.8633,1.517 l -15.8509,-9.865 -11.1154,17.982 16.3964,10.205 c -1.7122,8.787 0.1621,18.253 5.9667,26.003 10.8606,14.498 31.3686,17.492 45.8069,6.677 l 13.9928,18.68 35.339,-7.297 -42.861,-57.219 z m -69.4835,1.077 6.4803,-10.638 6.33,3.883 -6.4803,10.638 z"
           fill="#ffffff"
           id="path250" />
      </mask>
      <g
         mask="url(#mask2_378_224)"
         id="g257">
        <path
           d="m 54.7477,175.902 c -4.8151,-6.428 -6.186,-15.173 -2.8327,-23.052 4.9969,-11.741 18.6198,-17.183 30.3679,-12.128 5.6917,2.448 10.0995,6.963 12.4121,12.718 2.3123,5.753 2.2528,12.054 -0.167,17.742 -2.42,5.688 -6.912,10.082 -12.6478,12.372 -5.7358,2.291 -12.0288,2.204 -17.7201,-0.244 -3.8645,-1.662 -7.0522,-4.257 -9.4124,-7.408 z m 35.0535,-26.348 c -2.1635,-2.888 -5.0527,-5.174 -8.4523,-6.637 -10.5369,-4.533 -22.7553,0.347 -27.2367,10.878 -2.1707,5.101 -2.2242,10.753 -0.1493,15.912 2.0737,5.16 6.0279,9.211 11.1317,11.407 5.1042,2.196 10.7484,2.273 15.8929,0.218 5.1441,-2.054 9.1726,-5.995 11.3434,-11.097 2.1708,-5.101 2.2246,-10.752 0.1497,-15.911 -0.6927,-1.723 -1.5951,-3.323 -2.6797,-4.771 z"
           fill="#000000"
           id="path253" />
        <path
           d="M 47.1101,188.248 C 35.4344,172.66 38.559,150.523 54.0762,138.9 c 15.5172,-11.624 37.6399,-8.399 49.3158,7.189 11.676,15.587 8.551,37.724 -6.966,49.348 -15.5171,11.623 -37.6398,8.398 -49.3159,-7.189 z m 54.3739,-40.73 c -10.8841,-14.531 -31.5072,-17.537 -45.9722,-6.702 -14.465,10.835 -17.3781,31.472 -6.4938,46.002 10.8843,14.531 31.5074,17.537 45.9724,6.702 14.4646,-10.835 17.3776,-31.472 6.4936,-46.002 z"
           fill="#000000"
           id="path255" />
      </g>
    </g>
  </g>
  <path
     d="m 107.957,227.745 8.488,-36.445 m 25.506,44.363 -11.857,-47.18 m 30.865,17.589 -17.502,-23.472"
     stroke="#5bc5f2"
     stroke-width="3"
     id="path263" />
  <defs
     id="defs268">
    <clipPath
       id="clip0_378_224">
      <rect
         width="254"
         height="81"
         fill="#ffffff"
         transform="rotate(53.1645,-4.7843383,19.942316)"
         id="rect265"
         x="0"
         y="0" />
    </clipPath>
  </defs>
</svg>
