<svg width="352" height="562" viewBox="0 0 352 562" fill="none" xmlns="http://www.w3.org/2000/svg">
<g clip-path="url(#clip0_375_129)">
<path d="M93.9591 195.525L91.5995 196.772L197.396 396.989L199.755 395.743L93.9591 195.525Z" fill="black"/>
<path d="M245.235 242.317L44.994 348.069L46.2407 350.429L246.481 244.676L245.235 242.317Z" fill="black"/>
<path d="M258.903 299.277L32.5919 290.752L32.4918 293.419L258.803 301.943L258.903 299.277Z" fill="black"/>
<path d="M151.41 183.267L148.743 183.167L140.245 409.436L142.912 409.537L151.41 183.267Z" fill="black"/>
<path d="M50.5366 234.959L49.1165 237.218L240.859 357.735L242.279 355.476L50.5366 234.959Z" fill="black"/>
<path d="M204.715 199.722L84.1997 391.415L86.4591 392.835L206.974 201.142L204.715 199.722Z" fill="black"/>
<path d="M111.505 407.121C50.3926 388.258 16.0179 323.203 34.8772 262.105C53.7365 201.007 118.798 166.645 179.91 185.509C241.022 204.373 275.397 269.427 256.538 330.525C237.678 391.624 172.617 425.985 111.505 407.121ZM173.615 205.905C123.751 190.513 70.6654 218.549 55.2773 268.402C39.8891 318.254 67.9368 371.334 117.8 386.726C167.664 402.117 220.75 374.081 236.138 324.228C251.526 274.376 223.478 221.296 173.615 205.905Z" fill="#5BC5F2"/>
<path d="M524.318 242.125C528.825 238.408 531.154 232.67 530.509 226.863L524.564 173.276L558.092 168.715C564.167 167.889 567.058 160.788 563.287 155.954L546.707 134.703C544.31 131.632 539.953 130.922 536.706 133.075C533.189 135.408 532.308 140.192 534.764 143.625L547.578 161.533L512.197 166.228L514.262 185.712C510.953 186.26 508.478 189.048 508.328 192.399L507.954 200.735L308.65 203.478L309.325 133.709L324.646 119.023L318.348 117.196L306.812 127.644L296.733 105.374L283.253 109.714L296.873 141.397L295.955 207.288L140.616 278.598L140.613 299.309L301.15 370.223L507.522 228.755L507.853 251.64L511.191 255.626C515.656 260.957 518.319 267.563 518.798 274.5L527.986 407.378L540.578 405.893L524.317 242.125L524.318 242.125ZM149.384 284.401L295.348 219.47L296.04 349.79L149.384 284.401ZM309.057 346.737L310.066 215.25L506.842 212.322L309.057 346.736L309.057 346.737Z" fill="#5BC5F2"/>
<path d="M289.795 396.786C309.343 402.819 330.081 391.868 336.113 372.324C342.146 352.78 331.189 332.045 311.641 326.012C292.093 319.978 271.356 330.929 265.324 350.473C259.291 370.017 270.247 390.752 289.795 396.786Z" fill="#5BC5F2"/>
<path d="M292.738 387.255C278.478 382.853 270.457 367.673 274.858 353.416C279.258 339.159 294.44 331.141 308.7 335.543C322.96 339.945 330.981 355.124 326.581 369.382C322.18 383.639 306.998 391.656 292.738 387.255ZM307.913 338.092C295.059 334.124 281.375 341.351 277.408 354.203C273.441 367.054 280.671 380.737 293.525 384.705C306.379 388.672 320.064 381.445 324.031 368.594C327.998 355.743 320.767 342.059 307.913 338.092Z" fill="black"/>
<path d="M297.502 371.82C303.258 373.597 309.366 370.372 311.142 364.616C312.919 358.86 309.692 352.754 303.935 350.977C298.178 349.2 292.071 352.425 290.295 358.181C288.518 363.937 291.745 370.043 297.502 371.82Z" fill="black"/>
<path d="M297.8 356.445L292.998 363.756L326.225 414.698L321.122 413.123C318.381 412.277 315.474 413.812 314.628 416.552L314.525 416.887C313.679 419.627 315.215 422.534 317.956 423.38L344.937 431.709C347.677 432.555 350.585 431.019 351.43 428.279C352.276 425.539 350.74 422.632 348 421.786L338.87 418.968L297.8 356.445L297.8 356.445Z" fill="black"/>
<path d="M342.321 128.709L299.317 115.435C296.289 114.5 293.012 114.806 290.209 116.286C286.624 118.179 282.435 118.571 278.562 117.375L273.843 115.919C264.07 112.902 255.896 106.128 251.118 97.0855C249.8 94.5905 249.527 91.6748 250.359 88.9794C252.257 82.8295 259.14 79.7618 264.985 82.4609L307.966 102.31L346.772 114.288C350.755 115.518 352.987 119.743 351.758 123.724C350.529 127.706 346.303 129.938 342.321 128.709Z" fill="black"/>
<path d="M140.27 313.93C150 316.933 160.323 311.482 163.326 301.753C166.328 292.025 160.875 281.704 151.144 278.7C141.414 275.697 131.091 281.148 128.088 290.877C125.085 300.605 130.539 310.926 140.27 313.93Z" fill="#5BC5F2"/>
</g>
<defs>
<clipPath id="clip0_375_129">
<rect width="638" height="390" fill="white" transform="translate(115.701 0.260254) rotate(17.154)"/>
</clipPath>
</defs>
</svg>
