<?xml version="1.0" encoding="UTF-8" standalone="no"?>
<svg
   width="345.97681"
   height="350.46536"
   viewBox="0 0 345.97681 350.46536"
   fill="none"
   version="1.1"
   id="svg133"
   sodipodi:docname="Group 16.svg"
   inkscape:version="1.1.2 (0a00cf5339, 2022-02-04)"
   xmlns:inkscape="http://www.inkscape.org/namespaces/inkscape"
   xmlns:sodipodi="http://sodipodi.sourceforge.net/DTD/sodipodi-0.dtd"
   xmlns="http://www.w3.org/2000/svg"
   xmlns:svg="http://www.w3.org/2000/svg">
  <sodipodi:namedview
     id="namedview135"
     pagecolor="#ffffff"
     bordercolor="#666666"
     borderopacity="1.0"
     inkscape:pageshadow="2"
     inkscape:pageopacity="0.0"
     inkscape:pagecheckerboard="0"
     showgrid="false"
     inkscape:zoom="1.2449857"
     inkscape:cx="270.28423"
     inkscape:cy="200.0023"
     inkscape:window-width="1916"
     inkscape:window-height="1053"
     inkscape:window-x="0"
     inkscape:window-y="0"
     inkscape:window-maximized="1"
     inkscape:current-layer="svg133" />
  <g
     clip-path="url(#clip0_378_223)"
     id="g124"
     transform="translate(-14.000265,-149.47605)">
    <path
       d="m 101.959,263.525 -2.3595,1.247 105.7965,200.217 2.359,-1.246 z"
       fill="#000000"
       id="path96" />
    <path
       d="M 253.235,310.317 52.994,416.069 54.2407,418.429 254.481,312.676 Z"
       fill="#000000"
       id="path98" />
    <path
       d="m 266.903,367.277 -226.3111,-8.525 -0.1001,2.667 226.3112,8.524 z"
       fill="#000000"
       id="path100" />
    <path
       d="m 159.41,251.267 -2.667,-0.1 -8.498,226.269 2.667,0.101 z"
       fill="#000000"
       id="path102" />
    <path
       d="m 58.5366,302.959 -1.4201,2.259 191.7425,120.517 1.42,-2.259 z"
       fill="#000000"
       id="path104" />
    <path
       d="M 212.715,267.722 92.1997,459.415 94.4591,460.835 214.974,269.142 Z"
       fill="#000000"
       id="path106" />
    <path
       d="M 119.505,475.121 C 58.3926,456.258 24.0179,391.203 42.8772,330.105 61.7365,269.007 126.798,234.645 187.91,253.509 c 61.112,18.864 95.487,83.918 76.628,145.016 -18.86,61.099 -83.921,95.46 -145.033,76.596 z m 62.11,-201.216 C 131.751,258.513 78.6654,286.549 63.2773,336.402 47.8891,386.254 75.9368,439.334 125.8,454.726 c 49.864,15.391 102.95,-12.645 118.338,-62.498 15.388,-49.852 -12.66,-102.932 -62.523,-118.323 z"
       fill="#5bc5f2"
       id="path108" />
    <path
       d="m 532.318,310.125 c 4.507,-3.717 6.836,-9.455 6.191,-15.262 l -5.945,-53.587 33.528,-4.561 c 6.075,-0.826 8.966,-7.927 5.195,-12.761 l -16.58,-21.251 c -2.397,-3.071 -6.754,-3.781 -10.001,-1.628 -3.517,2.333 -4.398,7.117 -1.942,10.55 l 12.814,17.908 -35.381,4.695 2.065,19.484 c -3.309,0.548 -5.784,3.336 -5.934,6.687 l -0.374,8.336 -199.304,2.743 0.675,-69.769 15.321,-14.686 -6.298,-1.827 -11.536,10.448 -10.079,-22.27 -13.48,4.34 13.62,31.683 -0.918,65.891 -155.339,71.31 -0.003,20.711 160.537,70.914 206.372,-141.468 0.331,22.885 3.338,3.986 c 4.465,5.331 7.128,11.937 7.607,18.874 l 9.188,132.878 12.592,-1.485 -16.261,-163.768 z m -374.934,42.276 145.964,-64.931 0.692,130.32 z m 159.673,62.336 1.009,-131.487 196.776,-2.928 -197.785,134.414 z"
       fill="#5bc5f2"
       id="path110" />
    <path
       d="m 297.795,464.786 c 19.548,6.033 40.286,-4.918 46.318,-24.462 6.033,-19.544 -4.924,-40.279 -24.472,-46.312 -19.548,-6.034 -40.285,4.917 -46.317,24.461 -6.033,19.544 4.923,40.279 24.471,46.313 z"
       fill="#5bc5f2"
       id="path112" />
    <path
       d="m 300.738,455.255 c -14.26,-4.402 -22.281,-19.582 -17.88,-33.839 4.4,-14.257 19.582,-22.275 33.842,-17.873 14.26,4.402 22.281,19.581 17.881,33.839 -4.401,14.257 -19.583,22.274 -33.843,17.873 z m 15.175,-49.163 c -12.854,-3.968 -26.538,3.259 -30.505,16.111 -3.967,12.851 3.263,26.534 16.117,30.502 12.854,3.967 26.539,-3.26 30.506,-16.111 3.967,-12.851 -3.264,-26.535 -16.118,-30.502 z"
       fill="#000000"
       id="path114" />
    <path
       d="m 305.502,439.82 c 5.756,1.777 11.864,-1.448 13.64,-7.204 1.777,-5.756 -1.45,-11.862 -7.207,-13.639 -5.757,-1.777 -11.864,1.448 -13.64,7.204 -1.777,5.756 1.45,11.862 7.207,13.639 z"
       fill="#000000"
       id="path116" />
    <path
       d="m 305.8,424.445 -4.802,7.311 33.227,50.942 -5.103,-1.575 c -2.741,-0.846 -5.648,0.689 -6.494,3.429 l -0.103,0.335 c -0.846,2.74 0.69,5.647 3.431,6.493 l 26.981,8.329 c 2.74,0.846 5.648,-0.69 6.493,-3.43 0.846,-2.74 -0.69,-5.647 -3.43,-6.493 l -9.13,-2.818 z"
       fill="#000000"
       id="path118" />
    <path
       d="m 350.321,196.709 -43.004,-13.274 c -3.028,-0.935 -6.305,-0.629 -9.108,0.851 -3.585,1.893 -7.774,2.285 -11.647,1.089 l -4.719,-1.456 c -9.773,-3.017 -17.947,-9.791 -22.725,-18.834 -1.318,-2.494 -1.591,-5.41 -0.759,-8.106 1.898,-6.149 8.781,-9.217 14.626,-6.518 l 42.981,19.849 38.806,11.978 c 3.983,1.23 6.215,5.455 4.986,9.436 -1.229,3.982 -5.455,6.214 -9.437,4.985 z"
       fill="#000000"
       id="path120" />
    <path
       d="m 148.27,381.93 c 9.73,3.003 20.053,-2.448 23.056,-12.177 3.002,-9.728 -2.451,-20.049 -12.182,-23.053 -9.73,-3.003 -20.053,2.448 -23.056,12.177 -3.003,9.728 2.451,20.049 12.182,23.053 z"
       fill="#5bc5f2"
       id="path122" />
  </g>
  <path
     d="m 134.10574,79.578947 c -31.068,-2.831 -96.676005,23.673003 -118.004105,78.747003 m 43.3022,-78.240003 c -15.1339,6.334 -44.357,30.896003 -58.0258998,62.674003"
     stroke="#5bc5f2"
     stroke-width="3"
     id="path126" />
  <defs
     id="defs131">
    <clipPath
       id="clip0_378_223">
      <rect
         width="638"
         height="390"
         fill="#ffffff"
         transform="rotate(17.154,-164.43894,444.21083)"
         id="rect128"
         x="0"
         y="0" />
    </clipPath>
  </defs>
</svg>
