<?xml version="1.0" encoding="UTF-8" standalone="no"?>
<svg
   width="252"
   height="293"
   viewBox="0 0 252 293"
   fill="none"
   version="1.1"
   id="svg27"
   sodipodi:docname="blue-target.svg"
   inkscape:version="1.1.2 (0a00cf5339, 2022-02-04)"
   xmlns:inkscape="http://www.inkscape.org/namespaces/inkscape"
   xmlns:sodipodi="http://sodipodi.sourceforge.net/DTD/sodipodi-0.dtd"
   xmlns="http://www.w3.org/2000/svg"
   xmlns:svg="http://www.w3.org/2000/svg">
  <sodipodi:namedview
     id="namedview29"
     pagecolor="#ffffff"
     bordercolor="#666666"
     borderopacity="1.0"
     inkscape:pageshadow="2"
     inkscape:pageopacity="0.0"
     inkscape:pagecheckerboard="0"
     showgrid="false"
     height="410px"
     inkscape:zoom="1.4950749"
     inkscape:cx="126.08064"
     inkscape:cy="274.23375"
     inkscape:window-width="1916"
     inkscape:window-height="1053"
     inkscape:window-x="0"
     inkscape:window-y="0"
     inkscape:window-maximized="1"
     inkscape:current-layer="svg27" />
  <path
     d="M 41.1102,33.31 96.7417,79.785 M 30.7017,11.5934 53.3028,29.521 M 91.8702,39.272 48.3087,3.1543"
     stroke="#5bc5f2"
     stroke-width="3"
     id="path2" />
  <g
     clip-path="url(#clip0_378_226)"
     id="g20"
     transform="translate(0,-72)">
    <path
       d="m 205.228,364.262 c 66.361,1.073 121.027,-51.854 122.1,-118.215 1.073,-66.361 -51.854,-121.027 -118.215,-122.1 -66.361,-1.073 -121.0268,51.854 -122.0997,118.215 -1.0729,66.361 51.8537,121.027 118.2147,122.1 z"
       fill="#5bc5f2"
       id="path4" />
    <path
       fill-rule="evenodd"
       clip-rule="evenodd"
       d="m 208.608,155.212 c -49.094,-0.794 -89.536,38.361 -90.33,87.455 -0.794,49.094 38.361,89.536 87.456,90.33 49.094,0.794 89.536,-38.361 90.329,-87.455 0.794,-49.095 -38.361,-89.537 -87.455,-90.33 z m -93.214,87.409 c 0.82,-50.687 42.574,-91.112 93.26,-90.293 50.687,0.82 91.112,42.573 90.293,93.26 -0.82,50.687 -42.573,91.112 -93.26,90.293 -50.687,-0.82 -91.112,-42.574 -90.293,-93.26 z"
       fill="#000000"
       id="path6" />
    <path
       d="m 206.191,304.672 c -33.397,-0.54 -60.129,-28.149 -59.589,-61.547 0.54,-33.398 28.15,-60.129 61.548,-59.589 33.398,0.54 60.128,28.15 59.588,61.548 -0.54,33.397 -28.149,60.128 -61.547,59.588 z m 1.912,-118.252 c -31.807,-0.514 -58.103,24.945 -58.617,56.752 -0.514,31.808 24.944,58.103 56.752,58.617 31.808,0.514 58.103,-24.945 58.617,-56.751 0.514,-31.807 -24.945,-58.104 -56.752,-58.618 z"
       fill="#000000"
       id="path8" />
    <path
       fill-rule="evenodd"
       clip-rule="evenodd"
       d="m 207.583,218.609 c -14.081,-0.228 -25.68,11.002 -25.908,25.083 -0.227,14.081 11.003,25.68 25.083,25.908 14.081,0.227 25.68,-11.003 25.908,-25.084 0.227,-14.08 -11.003,-25.679 -25.083,-25.907 z m -28.791,25.036 c 0.253,-15.673 13.164,-28.173 28.837,-27.92 15.674,0.254 28.174,13.165 27.92,28.838 -0.253,15.673 -13.164,28.174 -28.837,27.92 -15.673,-0.253 -28.174,-13.164 -27.92,-28.838 z"
       fill="#000000"
       id="path10" />
    <path
       d="m 197.763,248.197 -0.164,-2.88 9.186,-0.522 7.253,-10.692 2.386,1.619 -8.052,11.872 z"
       fill="#000000"
       id="path12" />
    <path
       d="m 115.831,148.577 -2.072,2.006 92.658,95.703 2.072,-2.006 z"
       fill="#000000"
       id="path14" />
    <path
       d="m 119.6,154.42 -21.6065,-12.873 1.4757,-2.477 11.8058,7.033 -6.945,-11.632 2.476,-1.479 z"
       fill="#000000"
       id="path16" />
    <path
       d="m 102.603,135.167 -2.072,2.006 13.102,13.533 2.072,-2.006 z"
       fill="#000000"
       id="path18" />
  </g>
  <defs
     id="defs25">
    <clipPath
       id="clip0_378_226">
      <rect
         width="240.347"
         height="240.347"
         fill="#ffffff"
         transform="rotate(0.926248,-7502.272,5563.5096)"
         id="rect22"
         x="0"
         y="0" />
    </clipPath>
  </defs>
</svg>
