<?xml version="1.0" encoding="UTF-8" standalone="no"?>
<svg
   width="201"
   height="212"
   viewBox="0 0 201 212"
   fill="none"
   version="1.1"
   id="svg417"
   sodipodi:docname="blue-arc.svg"
   inkscape:version="1.1.2 (0a00cf5339, 2022-02-04)"
   xmlns:inkscape="http://www.inkscape.org/namespaces/inkscape"
   xmlns:sodipodi="http://sodipodi.sourceforge.net/DTD/sodipodi-0.dtd"
   xmlns="http://www.w3.org/2000/svg"
   xmlns:svg="http://www.w3.org/2000/svg">
  <defs
     id="defs421" />
  <sodipodi:namedview
     id="namedview419"
     pagecolor="#ffffff"
     bordercolor="#666666"
     borderopacity="1.0"
     inkscape:pageshadow="2"
     inkscape:pageopacity="0.0"
     inkscape:pagecheckerboard="0"
     showgrid="false"
     height="287px"
     inkscape:zoom="0.75434028"
     inkscape:cx="117.32106"
     inkscape:cy="285.01726"
     inkscape:window-width="1916"
     inkscape:window-height="1053"
     inkscape:window-x="0"
     inkscape:window-y="0"
     inkscape:window-maximized="1"
     inkscape:current-layer="svg417" />
  <path
     d="M 11.4356,196.533 154.095,137.115 152.886,134.212 10.2266,193.63 Z"
     fill="#000000"
     id="path403" />
  <path
     d="m 165.15,124.363 1.926,2.486 -8.463,6.553 10.393,-1.717 0.513,3.102 -22.665,3.745 z"
     fill="#000000"
     id="path405" />
  <path
     d="m 154.036,136.973 15.131,-6.302 -1.209,-2.902 -15.131,6.302 z"
     fill="#000000"
     id="path407" />
  <path
     d="m 19.7789,185.239 1.9256,2.487 -8.4625,6.553 10.3934,-1.717 0.5122,3.103 -22.6654,3.743 z"
     fill="#000000"
     id="path409" />
  <path
     d="m 149.115,82.4999 c -9.542,28.7261 -17.171,50.2921 -0.253,65.0691 m 4.964,-40.097 c -4.266,9.174 -7.731,30.049 12.534,40.166"
     stroke="#5bc5f2"
     stroke-width="3"
     id="path411" />
  <path
     d="m 251.087,221.021 2.586,-1.364 -112.56,-213.4508 -2.586,1.3635 z"
     fill="#000000"
     id="path413" />
  <path
     d="m 124.816,0.7104 23.384,-0.2032 0.009,0.9622 c 0.235,26.5892 -4.558,54.1613 -14.248,81.9495 l -4.987,14.3021 c -6.492,18.616 -5.927,36.034 1.634,50.371 7.56,14.337 21.614,24.642 40.643,29.8 l 14.508,3.933 c 28.483,7.721 54.001,19.38 75.848,34.653 l 0.775,0.542 -13.398,19.166 -0.774,-0.542 c -19.629,-13.722 -42.699,-24.237 -68.57,-31.25 l -14.508,-3.933 c -25.09,-6.801 -44.697,-21.526 -55.21,-41.462 -10.513,-19.936 -11.589,-44.434 -3.03,-68.979 l 4.987,-14.3023 c 8.802,-25.2401 13.157,-50.1523 12.945,-74.0441 z"
     fill="#5bc5f2"
     id="path415" />
</svg>
