<?xml version="1.0" encoding="UTF-8" standalone="no"?>
<svg
   width="209.42693"
   height="141.48465"
   viewBox="0 0 209.42693 141.48465"
   fill="none"
   version="1.1"
   id="svg274"
   sodipodi:docname="blue-gloves.svg"
   inkscape:version="1.1.2 (0a00cf5339, 2022-02-04)"
   xmlns:inkscape="http://www.inkscape.org/namespaces/inkscape"
   xmlns:sodipodi="http://sodipodi.sourceforge.net/DTD/sodipodi-0.dtd"
   xmlns="http://www.w3.org/2000/svg"
   xmlns:svg="http://www.w3.org/2000/svg">
  <sodipodi:namedview
     id="namedview276"
     pagecolor="#ffffff"
     bordercolor="#666666"
     borderopacity="1.0"
     inkscape:pageshadow="2"
     inkscape:pageopacity="0.0"
     inkscape:pagecheckerboard="0"
     showgrid="false"
     inkscape:zoom="2.3873626"
     inkscape:cx="81.26122"
     inkscape:cy="69.532796"
     inkscape:window-width="1916"
     inkscape:window-height="1053"
     inkscape:window-x="0"
     inkscape:window-y="0"
     inkscape:window-maximized="1"
     inkscape:current-layer="svg274" />
  <g
     clip-path="url(#clip0_378_220)"
     id="g265"
     transform="translate(-12.4743,-18.169345)">
    <path
       d="m 33.5021,82.6965 c -3.109,-3.5278 -2.7584,-8.8953 0.7831,-11.9887 L 87.9949,23.7942 c 3.3804,-2.9527 8.3239,-3.291 12.0791,-0.8231 7.541,4.9564 20.526,13.5524 31.97,21.4387 12.245,8.4385 13.266,26.0817 2.078,35.8542 l -15.998,13.9743 16.168,-14.1222 c 0.046,-0.0398 0.116,-0.0346 0.156,0.0101 8.291,9.4978 7.325,23.8868 -2.181,32.1898 l -34.4467,30.089 c -3.6502,3.188 -9.2077,2.825 -12.4121,-0.811 l -20.6761,18.06 -52.2578,-58.59 21.0286,-18.3682 z"
       fill="#5bc5f2"
       id="path252" />
    <mask
       id="mask0_378_220"
       maskUnits="userSpaceOnUse"
       x="12"
       y="21"
       width="130"
       height="139">
      <path
         d="M 33.502,82.6965 C 30.393,79.1687 30.7436,73.8012 34.2851,70.7078 L 87.9948,23.7942 c 3.3804,-2.9527 8.3239,-3.291 12.0792,-0.8231 7.541,4.9564 20.526,13.5524 31.97,21.4387 12.245,8.4385 13.266,26.0817 2.078,35.8542 l -15.999,13.9743 16.169,-14.1222 c 0.046,-0.0398 0.116,-0.0346 0.156,0.0101 8.291,9.4978 7.325,23.8868 -2.181,32.1898 l -34.4468,30.089 c -3.6502,3.188 -9.2077,2.825 -12.4121,-0.811 L 64.732,159.654 12.4741,101.064 33.5027,82.6958 Z"
         fill="#ffffff"
         id="path254" />
    </mask>
    <g
       mask="url(#mask0_378_220)"
       id="g263">
      <path
         d="m 52.5807,66.235 1.9006,-2.1263 24.3976,21.623 C 93.5044,98.1555 115.459,98.011 129.926,85.3754 l 5.65,-4.9351 1.886,2.1405 -5.65,4.935 C 124.25,94.1214 114.543,97.7957 104.48,97.8623 94.4169,97.9291 84.6581,94.3835 77.0006,87.8781 L 52.5799,66.2356 Z"
         fill="#000000"
         id="path257" />
      <path
         d="M 82.4324,134.397 40.3608,86.6586 38.2118,88.5357 80.2833,136.274 Z"
         fill="#000000"
         id="path259" />
      <path
         d="m 74.2197,115.787 13.5316,-11.819 c 5.1036,-4.4583 12.3897,-4.8918 17.9127,-1.559 l -1.439,-5.6539 2.773,-0.697 3.978,15.6369 -3.92,-4.448 c -4.489,-5.094 -12.3035,-5.605 -17.4178,-1.137 l -13.5315,11.819 -1.8864,-2.141 z"
         fill="#000000"
         id="path261" />
    </g>
  </g>
  <path
     d="m 143.9157,38.666255 5.001,-38.47290029 m 4.514,57.32060029 55.948,-1.7994 m -32.05,-39.4358 -28.168,32.1694"
     stroke="#5bc5f2"
     stroke-width="3"
     id="path267" />
  <defs
     id="defs272">
    <clipPath
       id="clip0_378_220">
      <rect
         width="140"
         height="127"
         fill="#ffffff"
         transform="rotate(93.7371,60.855859,80.087947)"
         id="rect269"
         x="0"
         y="0" />
    </clipPath>
  </defs>
</svg>
