<svg width="103" height="20" viewBox="0 0 103 20" fill="none" xmlns="http://www.w3.org/2000/svg">
<g clip-path="url(#clip0_243_42)">
<path d="M15.343 10.3919L14.6188 15.2878L0.00012207 19.9654L0.624093 15.7461L9.65584 12.8375L9.71364 12.4474L1.55262 9.46847L2.11903 5.63928L15.343 10.3919Z" fill="black"/>
<path d="M17.2226 6.26315H21.007L19.0615 19.6839H15.2771L17.2226 6.26315ZM16.7099 2.5005C16.9255 1.07888 18.3308 0 20.0068 0C21.6828 0 22.8182 1.07888 22.6014 2.5005C22.3859 3.92118 20.9806 5.00006 19.3046 5.00006C17.6286 5.00006 16.4931 3.92118 16.7099 2.5005Z" fill="black"/>
<path d="M21.2796 12.9741C21.8475 8.97377 25.5227 5.94702 29.7934 5.94702C33.6581 5.94702 36.3077 8.44752 36.3343 11.9209H32.2264C31.7941 11.0788 30.6044 10.5259 29.1179 10.5259C27.0635 10.5259 25.3875 11.5791 25.1983 12.9739C25.009 14.3677 26.3613 15.4209 28.4147 15.4209C29.9013 15.4209 31.2526 14.868 31.902 14.0259H36.0098C35.0106 17.4993 31.6049 19.9998 27.7392 19.9998C23.4685 19.9998 20.712 16.9733 21.2799 12.9739L21.2796 12.9741Z" fill="black"/>
<path d="M42.3435 14.053C42.2356 14.8157 42.6682 15.1575 43.7497 15.1575H45.6677L45.0195 19.6841H42.6404C39.3975 19.6841 37.9647 18.1843 38.3973 15.1844L39.0465 10.7372H36.5321L37.1813 6.26315H39.6946L40.1006 3.36831L44.0466 2.31628L43.4788 6.26315H47.2355L46.5873 10.7372H42.8294L42.343 14.053H42.3435Z" fill="black"/>
<path d="M46.6463 12.9741C47.2142 8.97377 50.8894 5.94702 55.1601 5.94702C59.4308 5.94702 62.1873 8.97353 61.6194 12.9741C61.0528 16.9735 57.3763 20 53.1057 20C48.835 20 46.0784 16.9735 46.6463 12.9741ZM57.701 12.9741C57.8903 11.5791 56.539 10.5261 54.4845 10.5261C52.4301 10.5261 50.7542 11.5793 50.5649 12.9741C50.3757 14.3679 51.728 15.4211 53.7814 15.4211C55.8349 15.4211 57.5118 14.3679 57.701 12.9741Z" fill="black"/>
<path d="M63.8445 6.26315H67.6288L65.6833 19.6839H61.8989L63.8445 6.26315ZM63.3318 2.5005C63.5473 1.07888 64.9526 0 66.6286 0C68.3046 0 69.4401 1.07888 69.2233 2.5005C69.0077 3.92118 67.6024 5.00006 65.9264 5.00006C64.2504 5.00006 63.115 3.92118 63.3318 2.5005Z" fill="black"/>
<path d="M78.2542 6.05328L77.4432 11.711C74.3082 11.711 72.6059 12.6057 72.2812 14.3423L71.4977 19.6841H67.7134L69.6589 6.26341H73.4433L72.9843 9.42183C74.4159 7.34229 76.2547 6.05328 78.2542 6.05328Z" fill="black"/>
<path d="M92.5574 13.0792C92.5298 13.421 92.4222 13.8688 92.3143 14.1837H81.3399C81.7185 15.3161 82.9619 15.9997 84.7995 15.9997C86.2323 15.9997 87.557 15.6053 88.0436 15.2101H92.0711C90.6922 18.0524 87.5836 20 84.07 20C79.7994 20 77.0428 16.9735 77.6107 12.9741C78.1785 8.97377 81.8538 5.94702 86.1244 5.94702C90.3951 5.94702 93.1792 8.94715 92.5574 13.0792ZM81.7185 11.7367H88.881C88.5035 10.6053 87.205 9.94758 85.5302 9.94758C83.8554 9.94758 82.449 10.6312 81.7185 11.7367Z" fill="black"/>
<path d="M102.944 6.1581C102.538 8.97355 100.079 11.0788 97.1868 11.0788C94.295 11.0788 92.4023 8.97355 92.8082 6.1581C93.2133 3.34265 95.7264 1.21057 98.6194 1.21057C101.512 1.21057 103.349 3.34265 102.944 6.1581ZM98.3763 2.81547C96.159 2.81547 94.2948 4.26276 93.9967 6.1581C93.7272 8.05227 95.2137 9.47388 97.43 9.47388C99.6187 9.47388 101.484 8.05227 101.755 6.1581C102.052 4.26276 100.565 2.81547 98.3763 2.81547ZM100.079 5.34164C99.9707 6.0005 99.5384 6.5522 98.9705 6.84264L99.7815 8.34247H98.6734L97.9427 7.07938H97.1329L96.9437 8.34247H95.8895L96.5653 3.57916H98.5108C99.5386 3.57916 100.214 4.34191 100.079 5.34164ZM98.295 4.97416H97.43L97.3221 5.71006H98.1871C98.7273 5.71006 98.9969 5.57839 99.052 5.34141C99.0784 5.10467 98.8352 4.97416 98.295 4.97416Z" fill="black"/>
</g>
<defs>
<clipPath id="clip0_243_42">
<rect width="103" height="20" fill="white"/>
</clipPath>
</defs>
</svg>
