<?xml version="1.0" encoding="UTF-8"?>
<svg id="Calque_1" data-name="Calque 1" xmlns="http://www.w3.org/2000/svg" viewBox="0 0 5087.51 1665.25">
  <path d="M48.76,34.34H692.04c-13.27,42.79-27.4,84.32-38.99,126.55-25.43,92.7-36.7,187.38-34.32,283.46,.34,13.73-5.49,20.06-15.53,26.96-162.31,111.37-260.87,264.43-293.98,458.15-18.64,109.05-9.15,217,25.42,322.43,8.84,26.97,7.54,28.71-20.09,28.72-81.83,.02-163.66-.39-245.48,.34-16.6,.16-21.68-4.7-21.67-21.5,.42-402.43,.33-804.86,.37-1207.29,0-5.27,.57-10.52,.98-17.81Z" style="fill: #ae0f0a; fill-rule: evenodd;"/>
  <path d="M1158,482.49c61.81,19.2,116.9,46.13,166.46,83.17,144.09,107.68,226.93,250.42,240.56,430.81,11.79,156.18-35.41,294.04-133.43,415.38-8.35,10.35-16.38,12.91-29.2,9.09-284.56-84.49-496.55-257.81-636.76-519.22-1.59-2.95-2.96-6-4.24-9.09-.51-1.19-.46-2.6-.84-5.07,224.72-42.52,370.64-163.78,397.45-405.06Z" style="fill: #770f00; fill-rule: evenodd;"/>
  <path d="M419.1,898.74c60.69,0,120.3,.49,179.91-.19,36.15-.41,72.36-1.56,108.36-4.59,13.58-1.14,20.01,1.55,26.11,13.86,42.7,86.34,97.25,164.7,162.19,235.79,132.17,144.66,292.41,244.94,479.6,302.39,5.06,1.54,10.07,3.18,15.53,4.91-130.38,144.55-401.51,233.37-653.57,114.69-264.37-124.45-383.9-412.18-318.13-666.87Z" style="fill: #770f00; fill-rule: evenodd;"/>
  <path d="M1125.18,486.42c-16.15,159.82-103.06,286.48-272.64,344.28-28.96,9.88-59.22,15.96-88.87,23.82-13.43,3.57-21.93,.28-27.82-13.96-36.52-88.02-63.66-178.55-74.6-273.44-.7-6.02,3.72-15.61,8.77-18.85,75.95-48.81,158.76-78.39,248.73-88.58,63.22-7.16,125.6-3.48,187.7,8.83,10.32,2.04,22.72,3.1,18.72,17.9Z" style="fill: #770f00; fill-rule: evenodd;"/>
  <path d="M1121.12,369.9c-165.77-31.31-321.12-6.87-472.04,73.5,3.45-49.49,4.77-94.18,10.02-138.4,10.43-87.95,32.55-173.18,65.68-255.45,3.52-8.72,5.29-17.41,18.62-15.96,82.56,8.94,162.24,26.66,232.14,74.62,83.64,57.4,125.24,140.14,142.24,237.51,1.15,6.57,1.83,13.21,3.34,24.17Z" style="fill: #ae0f0a; fill-rule: evenodd;"/>
  <path d="M427.97,863.69c37.02-114.9,102.95-209.98,201.47-287.23,14.77,99.99,41.08,193.13,82.18,287.23H427.97Z" style="fill: #770f00; fill-rule: evenodd;"/>
  <path d="M4852.31,456.04c111.95-.04,182.79,73.13,182.87,188.96,.1,118.08-68.1,188.87-181.95,188.87s-183.22-71-183.22-187.81c-.02-116.1,70.84-189.96,182.3-190.02Zm113.69,191.57c2.06-.57,4.12-1.14,6.16-1.72-9.49-36.6-13.7-75.74-29.6-109.3-33.5-70.78-138.84-74.86-176.06-6.2-40.5,74.72-40.16,154.74-.59,230.01,31.13,59.2,114.77,66.43,160.62,17.8,34.66-36.75,37.99-83.53,39.46-130.59Z" style="fill: #e30613; fill-rule: evenodd;"/>
  <path d="M4411.99,614.66v208.33h-61.65V356.33c63.84,0,127.92-2.78,191.65,.84,54.96,3.12,87.7,32.97,99.52,79.64,14.09,55.67-4.29,110.26-48.16,142.43-37.28,27.36-80.35,34.58-125.12,35.38-18.25,.33-36.5,.04-56.24,.04Zm.37-28.27c21.82,0,43.3,2.16,64.22-.37,91.05-10.96,113.12-70.04,99.99-145.64-4.98-28.54-25.17-48.22-54.02-52.2-35.87-4.92-72.35-5.43-110.2-7.94v206.15Z" style="fill: #e30613; fill-rule: evenodd;"/>
  <path d="M3015.23,824.17h-64.59V466.1h61.85v44.22c3.02,2.39,6.04,4.78,9.06,7.17,2.52-6.04,3.65-13.33,7.79-17.9,37.6-41.46,98.97-56.22,151.25-36.13,44.6,17.15,67.63,52.28,69.1,98.05,2.19,68.35-.19,136.82-.57,205.25-.1,18.23-.02,36.44-.02,56.34h-61.07c0-8.57-.05-18.09,0-27.58,.36-70.84,2.69-141.74,.46-212.5-1.66-52.38-32.08-84.27-73.4-85.27-57.09-1.39-95.38,27.01-99.64,82.43-4.66,60.49-2.6,121.53-2.89,182.32-.09,19.8,1.65,39.58,2.66,61.67Z" style="fill: #e30613; fill-rule: evenodd;"/>
  <path d="M2886.81,641.97h-252.8c-12.56,56.22,13.28,113.77,49.09,137.21,70.18,45.95,131,20.13,189.4-30.32,3.18,26.01-.55,43.61-23.82,56.45-89.11,49.12-194.2,34.42-249.7-36.56-67.51-86.33-39.5-249.63,52.03-295.13,50.17-24.92,103.35-25.99,154.97-3.98,63.06,26.89,91.74,88.58,80.85,172.34Zm-64.61-31.62c7.34-71.23-26.71-124.26-80.19-127.57-57.91-3.57-102.24,49.32-105.79,127.57h185.98Z" style="fill: #e30613; fill-rule: evenodd;"/>
  <path d="M3991.1,641.69h-250.18c-14.88,54.51,14.66,115.46,45.48,135.86,70.68,46.73,132.23,23.5,191.24-28.25,4.2,27.13-2.17,44.4-25.19,57.67-105.56,60.82-240.24,19.11-273.56-89.21-21.99-71.51-14-142.45,30.75-205.13,39.6-55.51,135.04-74.8,202.65-43.09,63.45,29.77,96.66,100.22,78.8,172.16Zm-60-31.68c-2.43-45.97-6.82-89.03-48.28-115.59-27.64-17.7-58.2-16.33-84.82,1.82-39.2,26.74-53.42,67.04-55.87,113.77h188.98Z" style="fill: #e30613; fill-rule: evenodd;"/>
  <path d="M1940.45,443.3c-6.87-12.43-10.5-18.74-13.89-25.19-17.31-32.97-46.15-49.06-81.88-45.59-34.13,3.31-60.79,25.11-71.06,58.14-10.86,34.93-2.87,68.21,27.06,89.38,22.82,16.15,49.41,27.03,74.51,39.89,7.36,3.78,15.53,5.96,23.01,9.53,65.62,31.48,86.59,64,82.7,127.94-3.62,59.67-43.39,111.65-102.55,128.43-52.77,14.96-105.29,14.8-155.03-13.9-14.16-8.19-20.36-16.62-14.26-33.36,4.9-13.41,6.72-27.97,16.25-43.05,4.01,6.57,7.84,13.27,12.05,19.72,24.75,37.89,72.21,58.9,112.35,49.89,45.49-10.23,70.3-37.99,76.46-86.88,3.83-30.4-4.78-57.53-31.01-74.23-24.4-15.54-51.41-26.99-77.41-39.99-11.11-5.55-22.98-9.74-33.8-15.78-57.55-32.25-79.35-82.41-64.85-148.02,10.67-48.2,61.6-89.68,117.44-93.99,37.75-2.92,75-1.31,109.19,18.94,12.92,7.66,17.43,15.05,10.26,29.87-6.29,13-9.11,27.7-15.54,48.26Z" style="fill: #e30613; fill-rule: evenodd;"/>
  <path d="M4043.94,754.32c12.17,10.84,22.43,20.29,33.05,29.36,45.1,38.46,109.81,26.09,126.35-24.03,9.45-28.66,2.67-51.63-23.68-66.08-19.43-10.66-41.48-16.43-62-25.27-18.21-7.84-38.36-13.84-53.38-25.95-58.47-46.99-39.01-148.09,33.19-176.18,48.04-18.7,94.52-12.8,140.35,12-6,18.15-11.84,35.83-19.58,59.2-7.49-10.08-12.33-16.66-17.23-23.21-18.7-24.99-49.44-34.79-77.8-24.84-25.03,8.8-41.5,35.05-40.06,63.06,1.23,23.62,14.7,39.14,34.58,48.2,18.8,8.55,38.89,14.47,58.69,20.66,61.24,19.15,82.94,43.6,82.56,94.05-.39,51.14-36.77,99.42-87.13,112.46-49.26,12.76-97.3,7.78-144.35-15.93,5.51-19.33,10.9-38.19,16.44-57.51Z" style="fill: #e30613; fill-rule: evenodd;"/>
  <path d="M3629.4,751.78c3.98,31.42-11.11,48.24-38.38,61.18-89.68,42.5-199.08,20.13-242.78-55.71-42.82-74.33-43.79-152.39,3.49-224.87,46.84-71.82,120.91-83.7,199.38-73.59,27.21,3.49,53.32,15.7,81.76,24.5-7.47,22.36-13.13,39.3-19.58,58.59-4.88-4.27-9.02-6.78-11.68-10.39-29.64-40.32-69.51-57.06-118.18-47.01-50.57,10.45-76.74,46.08-88.97,94.25-10.7,42.11-11.43,84.31-1.8,126.41,18.82,82.19,97.23,120.9,174.26,85.23,21.54-9.96,40.75-24.97,62.47-38.58Z" style="fill: #e30613; fill-rule: evenodd;"/>
  <path d="M2335.06,753.64c5,34.22-16.73,48.98-44.24,61.53-92.07,42.03-200.36,14.35-243.26-67.06-55.23-104.83-23.93-291.17,167.52-292.19,43.37-.23,84.24,7.12,121.46,32.32-6.07,17.86-11.8,34.72-18.45,54.28-4.81-4.43-8.15-6.61-10.29-9.63-29.76-41.71-70.41-58.88-120-48.16-48.98,10.59-75.72,44.83-87.63,92.5-12.44,49.79-13.32,99.38,3.95,147.76,22.96,64.35,88.15,94.34,154.76,69.92,26.68-9.8,50.6-27.13,76.18-41.26Z" style="fill: #e30613; fill-rule: evenodd;"/>
  <path d="M2482.81,822.87c-4.62,.33-8.65,.82-12.68,.84-15.69,.1-31.4,.04-46.67,.04V467.65h59.35v355.21Z" style="fill: #e30613; fill-rule: evenodd;"/>
  <g>
    <path d="M1992.65,1203.88c47.07,60.16,95.74,122.36,144.42,184.59-36.19,13.6-61.36,6.31-83.43-22.84-36.23-47.81-72.45-95.66-109.9-142.51-7.43-9.29-20.39-14.17-30.8-21.07-2.85,11.02-7.96,22.01-8.14,33.09-.87,52.38-.39,104.81-.39,158.48h-50.09v-398.47c58.46,0,118-2.92,177.06,1.12,33.65,2.31,60.74,23.35,69.5,59.28,9.03,37.05,4.68,73.27-25.86,98.28-23.84,19.52-52.97,32.56-82.37,50.06Zm-86.76-188.02c0,51.4-.39,99.46,.6,147.49,.09,4.82,8.01,12.88,13.13,13.62,32.76,4.67,64.97,1.51,93.73-16.19,32.58-20.05,45.89-56.98,35.33-93.09-9.85-33.64-35.45-51.26-75.77-51.79-19.94-.27-39.89-.04-67.02-.04Z" style="fill: #1d1d1b; fill-rule: evenodd;"/>
    <path d="M2685.7,1395.71h-50.93c0-40.12,.16-79.09-.08-118.06-.14-23.38,.9-46.95-1.8-70.06-5.19-44.38-28.21-66.22-64.47-64.49-38.01,1.8-67.35,31.79-68.25,72.37-1.02,46.79-.17,93.62-.14,140.43,.01,12.35,0,24.72,0,38.22h-48.35v-276.7h47.45c.43,9.21,.86,18.19,1.44,30.64,26.75-24.8,53.77-41.11,89.94-39.99,59.8,1.86,94.19,33.89,94.99,94.85,.86,63.39,.2,126.79,.2,192.8Z" style="fill: #1d1d1b; fill-rule: evenodd;"/>
    <path d="M2983.04,1393.69h-47.93c1.47-26.48,4.25-53.63,4.16-80.76-.14-39.89,.04-80.05-4.43-119.57-3.55-31.48-25.48-49.65-52.2-51.81-33.44-2.74-60.57,11.98-71.49,41.79-5.61,15.27-9.06,32.15-9.41,48.4-1.14,53.98-.45,107.97-.45,162.44h-46.22v-276.88h44.63c.8,9.78,1.69,20.94,2.98,36.5,8.08-7.35,14.37-12.78,20.35-18.54,46.61-44.69,129.84-31.6,154.5,24.88,4.9,11.21,8.8,23.93,8.92,35.99,.55,63.28-.23,126.59-.69,189.88-.02,2.29-1.57,4.55-2.72,7.68Z" style="fill: #1d1d1b; fill-rule: evenodd;"/>
    <path d="M2403.05,1252.69h-192.04c-6.83,41.38,.66,77.1,33.09,102.48,51.46,40.26,99.66,19.37,145.97-14.13,1.94,1.19,3.88,2.37,5.81,3.55-3.34,9.41-3.81,22.76-10.47,27.6-77.58,56.3-198.92,31.31-224.29-64.65-13.73-51.96-7.69-102.17,20.97-148.25,32.68-52.55,105.88-60.12,156.72-40.85,51.96,19.72,74.7,67.59,64.25,134.25Zm-192.44-24.03h145.84c2.68-53.55-20.99-92.8-56.2-97.13-49.24-6.06-83.24,31.66-89.64,97.13Z" style="fill: #1d1d1b; fill-rule: evenodd;"/>
    <path d="M3270.96,1338.04c2.21,21.99-5.68,34.79-23.62,43.71-56.89,28.34-113.46,29.46-164.95-8.7-47.65-35.32-57.02-86.84-48.5-143.64,8.94-59.55,34.46-105.26,97.85-117,102.89-19.03,165.05,48.16,148.31,139.45-56.02,0-112.57-.04-169.13,.04-28.72,.02-31.83,3.78-27.07,31.97,14.86,88.29,92.01,120.08,165.28,68.19,6.61-4.68,13.62-8.76,21.84-14.02Zm-37.2-108.81c2.25-64.92-25.42-101.05-73.57-98.56-41.34,2.14-76.78,51.18-70.15,98.56h143.72Z" style="fill: #1d1d1b; fill-rule: evenodd;"/>
    <path d="M3449.73,1167.91c-19.33-23.99-37.58-44.91-70.53-31.76-19.11,7.61-29.01,21.92-30.81,41.56-1.76,19.58,7.68,34.38,25.01,42.22,15.76,7.12,32.79,11.43,49.22,17.13,30.13,10.45,57.71,23.89,60.86,60.94,3.43,40.38-16.25,76.56-50.81,92.34-37.81,17.27-76.31,14.62-114.02-.28-4.92-1.96-9.62-12-9.29-18.01,.51-9.49,5.37-18.76,9.8-32.48,7.33,7.02,12.08,11.94,17.23,16.41,21.72,18.94,45.28,32.11,74.88,19.27,18.82-8.17,30.36-21.8,31.7-43.81,1.35-21.76-9-35.09-27.29-42.99-15.17-6.55-31.07-11.51-46.87-16.47-44.97-14.15-67.33-44.69-61.14-84.27,7.37-47.28,40.11-76.98,86.31-77.39,13.19-.1,26.93-.22,39.52,3.08,36.91,9.68,39.48,18.6,16.23,54.53Z" style="fill: #1d1d1b; fill-rule: evenodd;"/>
  </g>
  <path d="M2451.66,371.05c-21.08-.31-39.2-19.48-38.5-40.75,.69-21.5,19.62-39.2,40.95-38.3,20.58,.86,37.22,18.5,37.26,39.48,.03,21.97-17.96,39.89-39.71,39.56Z" style="fill: #e30613; fill-rule: evenodd;"/>
</svg>